Lexend-Light.ufo
<glyph name="dollar" format="2">
  <advance width="593"/>
  <unicode hex="0024"/>
  <outline>
    <contour>
      <point x="301" y="-10" type="curve" smooth="yes"/>
      <point x="439.667" y="-10"/>
      <point x="540" y="74"/>
      <point x="540" y="186" type="curve" smooth="yes"/>
      <point x="540" y="298"/>
      <point x="455.667" y="346"/>
      <point x="321" y="382" type="curve" smooth="yes"/>
      <point x="186.333" y="418"/>
      <point x="138" y="447.333"/>
      <point x="138" y="518" type="curve" smooth="yes"/>
      <point x="138" y="598"/>
      <point x="209" y="655"/>
      <point x="305" y="655" type="curve" smooth="yes"/>
      <point x="389" y="655"/>
      <point x="451.333" y="616"/>
      <point x="490" y="564" type="curve"/>
      <point x="527" y="600" type="line"/>
      <point x="483" y="660"/>
      <point x="413" y="705"/>
      <point x="305" y="705" type="curve" smooth="yes"/>
      <point x="182.333" y="705"/>
      <point x="87" y="627"/>
      <point x="87" y="519" type="curve" smooth="yes"/>
      <point x="87" y="413.667"/>
      <point x="159.333" y="363"/>
      <point x="290" y="331" type="curve" smooth="yes"/>
      <point x="419.333" y="299"/>
      <point x="489" y="271"/>
      <point x="489" y="183" type="curve" smooth="yes"/>
      <point x="489" y="100.333"/>
      <point x="409.667" y="40"/>
      <point x="303" y="40" type="curve" smooth="yes"/>
      <point x="211" y="40"/>
      <point x="143.333" y="80.333"/>
      <point x="90" y="139" type="curve"/>
      <point x="53" y="103" type="line"/>
      <point x="105.901" y="39.247"/>
      <point x="200.967" y="-10"/>
    </contour>
    <contour>
      <point x="276" y="-91" type="line"/>
      <point x="325" y="-91" type="line"/>
      <point x="325" y="330" type="line"/>
      <point x="276" y="363" type="line"/>
    </contour>
    <contour>
      <point x="329" y="330" type="line"/>
      <point x="329" y="782" type="line"/>
      <point x="280" y="782" type="line"/>
      <point x="280" y="363" type="line"/>
    </contour>
  </outline>
</glyph>
<glyph name="parenright" format="2">
  <advance width="350"/>
  <unicode hex="0029"/>
  <outline>
    <contour>
      <point x="79" y="-186" type="line"/>
      <point x="242" y="-85"/>
      <point x="330" y="73"/>
      <point x="330" y="258" type="curve" smooth="yes"/>
      <point x="330" y="445"/>
      <point x="243" y="601"/>
      <point x="80" y="702" type="curve"/>
      <point x="50" y="669" type="line"/>
      <point x="201" y="564"/>
      <point x="280" y="422"/>
      <point x="280" y="258" type="curve" smooth="yes"/>
      <point x="280" y="94"/>
      <point x="201" y="-48"/>
      <point x="50" y="-153" type="curve"/>
    </contour>
  </outline>
</glyph>
<glyph name="plus" format="2">
  <advance width="591"/>
  <unicode hex="002B"/>
  <outline>
    <contour>
      <point x="55" y="262" type="line"/>
      <point x="536" y="262" type="line"/>
      <point x="536" y="310" type="line"/>
      <point x="55" y="310" type="line"/>
    </contour>
    <contour>
      <point x="270" y="42" type="line"/>
      <point x="320" y="42" type="line"/>
      <point x="320" y="525" type="line"/>
      <point x="270" y="525" type="line"/>
    </contour>
  </outline>
</glyph>
<glyph name="comma" format="2">
  <advance width="233"/>
  <unicode hex="002C"/>
  <outline>
    <contour>
      <point x="78" y="-151" type="line"/>
      <point x="148.667" y="-109.667"/>
      <point x="178" y="-68.667"/>
      <point x="178" y="-6" type="curve" smooth="yes"/>
      <point x="178" y="44.667"/>
      <point x="155.333" y="75"/>
      <point x="114" y="75" type="curve" smooth="yes"/>
      <point x="88.667" y="75"/>
      <point x="73" y="59.8"/>
      <point x="73" y="37" type="curve" smooth="yes"/>
      <point x="73" y="21.561"/>
      <point x="82.759" y="6.521"/>
      <point x="95" y="-3" type="curve" smooth="yes"/>
      <point x="117.667" y="-21.667"/>
      <point x="118" y="-33"/>
      <point x="118" y="-49" type="curve" smooth="yes"/>
      <point x="118" y="-77"/>
      <point x="97.333" y="-102.333"/>
      <point x="60" y="-125" type="curve"/>
    </contour>
  </outline>
</glyph>
<glyph name="period" format="2">
  <advance width="228"/>
  <unicode hex="002E"/>
  <outline>
    <contour>
      <point x="114" y="-10" type="curve" smooth="yes"/>
      <point x="140.667" y="-10"/>
      <point x="158" y="10.667"/>
      <point x="158" y="40" type="curve" smooth="yes"/>
      <point x="158" y="72"/>
      <point x="142" y="90"/>
      <point x="114" y="90" type="curve" smooth="yes"/>
      <point x="87.333" y="90"/>
      <point x="70" y="69.333"/>
      <point x="70" y="40" type="curve" smooth="yes"/>
      <point x="70" y="8"/>
      <point x="86" y="-10"/>
    </contour>
  </outline>
</glyph>
<glyph name="slash" format="2">
  <advance width="563"/>
  <unicode hex="002F"/>
  <outline>
    <contour>
      <point x="55" y="-107" type="line"/>
      <point x="110" y="-107" type="line"/>
      <point x="508" y="700" type="line"/>
      <point x="455" y="700" type="line"/>
    </contour>
  </outline>
</glyph>
<glyph name="zero" format="2">
  <advance width="616"/>
  <unicode hex="0030"/>
  <outline>
    <contour>
      <point x="308" y="-10" type="curve" smooth="yes"/>
      <point x="473.333" y="-10"/>
      <point x="566" y="119.333"/>
      <point x="566" y="350" type="curve" smooth="yes"/>
      <point x="566" y="580.667"/>
      <point x="473.333" y="710"/>
      <point x="308" y="710" type="curve" smooth="yes"/>
      <point x="142.667" y="710"/>
      <point x="50" y="580.667"/>
      <point x="50" y="350" type="curve" smooth="yes"/>
      <point x="50" y="119.333"/>
      <point x="142.667" y="-10"/>
    </contour>
    <contour>
      <point x="308" y="40" type="curve" smooth="yes"/>
      <point x="176" y="40"/>
      <point x="103" y="151.333"/>
      <point x="103" y="350" type="curve" smooth="yes"/>
      <point x="103" y="548.667"/>
      <point x="176" y="660"/>
      <point x="308" y="660" type="curve" smooth="yes"/>
      <point x="440" y="660"/>
      <point x="513" y="548.667"/>
      <point x="513" y="350" type="curve" smooth="yes"/>
      <point x="513" y="151.333"/>
      <point x="440" y="40"/>
    </contour>
  </outline>
</glyph>
<glyph name="one" format="2">
  <advance width="419"/>
  <unicode hex="0031"/>
  <outline>
    <contour>
      <point x="198" y="20" type="line"/>
      <point x="248" y="20" type="line"/>
      <point x="248" y="710" type="line"/>
      <point x="240" y="710" type="line"/>
      <point x="80" y="607" type="line"/>
      <point x="96" y="558" type="line"/>
      <point x="220" y="642" type="line"/>
      <point x="198" y="657" type="line"/>
    </contour>
    <contour>
      <point x="103" y="0" type="line"/>
      <point x="346" y="0" type="line"/>
      <point x="346" y="50" type="line"/>
      <point x="103" y="50" type="line"/>
    </contour>
  </outline>
</glyph>
<glyph name="two" format="2">
  <advance width="548"/>
  <unicode hex="0032"/>
  <outline>
    <contour>
      <point x="93" y="0" type="line"/>
      <point x="516" y="0" type="line"/>
      <point x="516" y="47" type="line"/>
      <point x="132" y="47" type="line"/>
      <point x="135" y="25" type="line"/>
      <point x="377" y="298" type="line" smooth="yes"/>
      <point x="442.333" y="374"/>
      <point x="494" y="444"/>
      <point x="494" y="528" type="curve" smooth="yes"/>
      <point x="494" y="636"/>
      <point x="402.253" y="710"/>
      <point x="290" y="710" type="curve" smooth="yes"/>
      <point x="179.707" y="710"/>
      <point x="88.333" y="650.667"/>
      <point x="51" y="524" type="curve"/>
      <point x="93" y="500" type="line"/>
      <point x="126.333" y="622.667"/>
      <point x="209.935" y="660"/>
      <point x="285" y="660" type="curve" smooth="yes"/>
      <point x="376.411" y="660"/>
      <point x="440" y="611.333"/>
      <point x="440" y="530" type="curve" smooth="yes"/>
      <point x="440" y="459.333"/>
      <point x="378.333" y="373.667"/>
      <point x="333" y="323" type="curve" smooth="yes"/>
      <point x="78" y="36" type="line"/>
    </contour>
  </outline>
</glyph>
<glyph name="seven" format="2">
  <advance width="491"/>
  <unicode hex="0037"/>
  <outline>
    <contour>
      <point x="102" y="0" type="line"/>
      <point x="158" y="0" type="line"/>
      <point x="444" y="647" type="line"/>
      <point x="432" y="700" type="line"/>
      <point x="20" y="700" type="line"/>
      <point x="20" y="653" type="line"/>
      <point x="414" y="653" type="line"/>
      <point x="401" y="674" type="line"/>
    </contour>
  </outline>
</glyph>
<glyph name="equal" format="2">
  <advance width="566"/>
  <unicode hex="003D"/>
  <outline>
    <contour>
      <point x="60" y="341" type="line"/>
      <point x="506" y="341" type="line"/>
      <point x="506" y="389" type="line"/>
      <point x="60" y="389" type="line"/>
    </contour>
    <contour>
      <point x="60" y="173" type="line"/>
      <point x="506" y="173" type="line"/>
      <point x="506" y="221" type="line"/>
      <point x="60" y="221" type="line"/>
    </contour>
  </outline>
</glyph>
<glyph name="at" format="2">
  <advance width="979"/>
  <unicode hex="0040"/>
  <outline>
    <contour>
      <point x="421" y="-162" type="curve" smooth="yes"/>
      <point x="499.667" y="-162"/>
      <point x="600.667" y="-135.667"/>
      <point x="674" y="-89" type="curve"/>
      <point x="652" y="-51" type="line"/>
      <point x="590" y="-85"/>
      <point x="510" y="-118"/>
      <point x="422" y="-118" type="curve" smooth="yes"/>
      <point x="228.667" y="-118"/>
      <point x="97" y="17.717"/>
      <point x="97" y="218" type="curve" smooth="yes"/>
      <point x="97" y="454.527"/>
      <point x="288.333" y="667"/>
      <point x="555" y="667" type="curve" smooth="yes"/>
      <point x="748.333" y="667"/>
      <point x="882" y="554.936"/>
      <point x="882" y="385" type="curve" smooth="yes"/>
      <point x="882" y="213"/>
      <point x="789.516" y="97"/>
      <point x="699" y="97" type="curve" smooth="yes"/>
      <point x="659" y="97"/>
      <point x="644" y="127"/>
      <point x="654" y="180" type="curve" smooth="yes"/>
      <point x="713" y="501" type="line"/>
      <point x="665" y="501" type="line"/>
      <point x="647" y="376" type="line"/>
      <point x="666" y="383" type="line"/>
      <point x="634" y="473.667"/>
      <point x="570.667" y="510"/>
      <point x="496" y="510" type="curve" smooth="yes"/>
      <point x="363" y="510"/>
      <point x="267" y="378"/>
      <point x="267" y="233" type="curve" smooth="yes"/>
      <point x="267" y="126.333"/>
      <point x="335.667" y="55"/>
      <point x="429" y="55" type="curve" smooth="yes"/>
      <point x="526.333" y="55"/>
      <point x="609.333" y="118.667"/>
      <point x="644" y="224" type="curve"/>
      <point x="627" y="229" type="line"/>
      <point x="612" y="179"/>
      <point x="608" y="156"/>
      <point x="608" y="138" type="curve" smooth="yes"/>
      <point x="608" y="89"/>
      <point x="632" y="55"/>
      <point x="689" y="55" type="curve" smooth="yes"/>
      <point x="813" y="55"/>
      <point x="929" y="189.333"/>
      <point x="929" y="388" type="curve" smooth="yes"/>
      <point x="929" y="576"/>
      <point x="777.333" y="710"/>
      <point x="556" y="710" type="curve" smooth="yes"/>
      <point x="270" y="710"/>
      <point x="50" y="496"/>
      <point x="50" y="212" type="curve" smooth="yes"/>
      <point x="50" y="-10.667"/>
      <point x="198.333" y="-162"/>
    </contour>
    <contour>
      <point x="438" y="100" type="curve" smooth="yes"/>
      <point x="365.327" y="100"/>
      <point x="317" y="153.333"/>
      <point x="317" y="232" type="curve" smooth="yes"/>
      <point x="317" y="370.667"/>
      <point x="410.667" y="465"/>
      <point x="500" y="465" type="curve" smooth="yes"/>
      <point x="580" y="465"/>
      <point x="635" y="409.667"/>
      <point x="635" y="327" type="curve" smooth="yes"/>
      <point x="635" y="316"/>
      <point x="633" y="304"/>
      <point x="630" y="288" type="curve" smooth="yes"/>
      <point x="607" y="175"/>
      <point x="534" y="100"/>
    </contour>
  </outline>
</glyph>
<glyph name="A" format="2">
  <advance width="647"/>
  <unicode hex="0041"/>
  <anchor x="324" y="0" name="bottom"/>
  <anchor x="622" y="0" name="ogonek"/>
  <anchor x="324" y="700" name="top"/>
  <outline>
    <contour>
      <point x="25" y="0" type="line"/>
      <point x="77" y="0" type="line"/>
      <point x="257" y="478" type="line" smooth="yes"/>
      <point x="289" y="563"/>
      <point x="303" y="600.333"/>
      <point x="331" y="687" type="curve"/>
      <point x="314" y="687" type="line"/>
      <point x="340.667" y="603"/>
      <point x="354" y="567"/>
      <point x="385" y="484" type="curve" smooth="yes"/>
      <point x="566" y="0" type="line"/>
      <point x="622" y="0" type="line"/>
      <point x="359" y="700" type="line"/>
      <point x="291" y="700" type="line"/>
    </contour>
    <contour>
      <point x="134" y="211" type="line"/>
      <point x="515" y="211" type="line"/>
      <point x="496" y="261" type="line"/>
      <point x="153" y="261" type="line"/>
    </contour>
  </outline>
</glyph>
<glyph name="C" format="2">
  <advance width="674"/>
  <unicode hex="0043"/>
  <anchor x="337" y="0" name="bottom"/>
  <anchor x="337" y="700" name="top"/>
  <outline>
    <contour>
      <point x="403" y="-10" type="curve" smooth="yes"/>
      <point x="488.333" y="-10"/>
      <point x="584" y="30"/>
      <point x="632" y="86" type="curve"/>
      <point x="605" y="130" type="line"/>
      <point x="567.667" y="78"/>
      <point x="483" y="40"/>
      <point x="403" y="40" type="curve" smooth="yes"/>
      <point x="228.333" y="40"/>
      <point x="103" y="170"/>
      <point x="103" y="350" type="curve" smooth="yes"/>
      <point x="103" y="527.333"/>
      <point x="223.667" y="655"/>
      <point x="393" y="655" type="curve" smooth="yes"/>
      <point x="474.333" y="655"/>
      <point x="564" y="610"/>
      <point x="608" y="546" type="curve"/>
      <point x="645" y="585" type="line"/>
      <point x="591.667" y="654.333"/>
      <point x="486.333" y="705"/>
      <point x="393" y="705" type="curve" smooth="yes"/>
      <point x="193" y="705"/>
      <point x="50" y="556.667"/>
      <point x="50" y="350" type="curve" smooth="yes"/>
      <point x="50" y="140.667"/>
      <point x="197.667" y="-10"/>
    </contour>
  </outline>
</glyph>
<glyph name="D" format="2">
  <advance width="739"/>
  <unicode hex="0044"/>
  <anchor x="370" y="0" name="bottom"/>
  <anchor x="176" y="350" name="center"/>
  <anchor x="370" y="700" name="top"/>
  <outline>
    <contour>
      <point x="108" y="0" type="line"/>
      <point x="363" y="0" type="line" smooth="yes"/>
      <point x="543" y="0"/>
      <point x="689" y="146"/>
      <point x="689" y="350" type="curve" smooth="yes"/>
      <point x="689" y="554"/>
      <point x="543" y="700"/>
      <point x="363" y="700" type="curve" smooth="yes"/>
      <point x="108" y="700" type="line"/>
    </contour>
    <contour>
      <point x="158" y="33" type="line"/>
      <point x="158" y="665" type="line"/>
      <point x="141" y="650" type="line"/>
      <point x="358" y="650" type="line" smooth="yes"/>
      <point x="510" y="650"/>
      <point x="636" y="524.667"/>
      <point x="636" y="350" type="curve" smooth="yes"/>
      <point x="636" y="175.333"/>
      <point x="510" y="50"/>
      <point x="358" y="50" type="curve" smooth="yes"/>
      <point x="144" y="50" type="line"/>
    </contour>
  </outline>
</glyph>
<glyph name="E" format="2">
  <advance width="585"/>
  <unicode hex="0045"/>
  <anchor x="293" y="0" name="bottom"/>
  <anchor x="471" y="0" name="ogonek"/>
  <anchor x="293" y="700" name="top"/>
  <anchor x="20" y="700" name="topleft"/>
  <outline>
    <contour>
      <point x="108" y="0" type="line"/>
      <point x="511" y="0" type="line"/>
      <point x="511" y="50" type="line"/>
      <point x="158" y="50" type="line"/>
      <point x="158" y="650" type="line"/>
      <point x="515" y="650" type="line"/>
      <point x="515" y="700" type="line"/>
      <point x="108" y="700" type="line"/>
    </contour>
    <contour>
      <point x="132" y="336" type="line"/>
      <point x="458" y="336" type="line"/>
      <point x="458" y="386" type="line"/>
      <point x="132" y="386" type="line"/>
    </contour>
  </outline>
</glyph>
<glyph name="H" format="2">
  <advance width="744"/>
  <unicode hex="0048"/>
  <anchor x="372" y="0" name="bottom"/>
  <anchor x="372" y="350" name="center"/>
  <anchor x="372" y="700" name="top"/>
  <anchor x="20" y="700" name="topleft"/>
  <outline>
    <contour>
      <point x="586" y="0" type="line"/>
      <point x="636" y="0" type="line"/>
      <point x="636" y="700" type="line"/>
      <point x="586" y="700" type="line"/>
    </contour>
    <contour>
      <point x="108" y="0" type="line"/>
      <point x="158" y="0" type="line"/>
      <point x="158" y="700" type="line"/>
      <point x="108" y="700" type="line"/>
    </contour>
    <contour>
      <point x="137" y="324" type="line"/>
      <point x="604" y="324" type="line"/>
      <point x="604" y="374" type="line"/>
      <point x="137" y="374" type="line"/>
    </contour>
  </outline>
</glyph>
<glyph name="I" format="2">
  <advance width="412"/>
  <unicode hex="0049"/>
  <anchor x="206" y="0" name="bottom"/>
  <anchor x="272" y="0" name="ogonek"/>
  <anchor x="206" y="700" name="top"/>
  <anchor x="20" y="700" name="topleft"/>
  <outline>
    <contour>
      <point x="68" y="0" type="line"/>
      <point x="344" y="0" type="line"/>
      <point x="344" y="50" type="line"/>
      <point x="231" y="50" type="line"/>
      <point x="231" y="650" type="line"/>
      <point x="344" y="650" type="line"/>
      <point x="344" y="700" type="line"/>
      <point x="68" y="700" type="line"/>
      <point x="68" y="650" type="line"/>
      <point x="181" y="650" type="line"/>
      <point x="181" y="50" type="line"/>
      <point x="68" y="50" type="line"/>
    </contour>
  </outline>
</glyph>
<glyph name="L" format="2">
  <advance width="536"/>
  <unicode hex="004C"/>
  <anchor x="268" y="0" name="bottom"/>
  <anchor x="135" y="350" name="center"/>
  <anchor x="134" y="700" name="top"/>
  <anchor x="285" y="700" name="topright"/>
  <outline>
    <contour>
      <point x="108" y="0" type="line"/>
      <point x="501" y="0" type="line"/>
      <point x="501" y="50" type="line"/>
      <point x="158" y="50" type="line"/>
      <point x="158" y="700" type="line"/>
      <point x="108" y="700" type="line"/>
    </contour>
  </outline>
</glyph>
<glyph name="M" format="2">
  <advance width="852"/>
  <unicode hex="004D"/>
  <anchor x="426" y="0" name="bottom"/>
  <anchor x="426" y="700" name="top"/>
  <outline>
    <contour>
      <point x="108" y="0" type="line"/>
      <point x="158" y="0" type="line"/>
      <point x="158" y="351" type="line" smooth="yes"/>
      <point x="158" y="480.333"/>
      <point x="157" y="566.667"/>
      <point x="149" y="656" type="curve"/>
      <point x="139" y="631" type="line"/>
      <point x="403" y="205" type="line"/>
      <point x="445" y="205" type="line"/>
      <point x="718" y="637" type="line"/>
      <point x="703" y="656" type="line"/>
      <point x="695" y="561.333"/>
      <point x="694" y="471"/>
      <point x="694" y="351" type="curve" smooth="yes"/>
      <point x="694" y="0" type="line"/>
      <point x="744" y="0" type="line"/>
      <point x="744" y="700" type="line"/>
      <point x="701" y="700" type="line"/>
      <point x="416" y="243" type="line"/>
      <point x="437" y="243" type="line"/>
      <point x="156" y="700" type="line"/>
      <point x="108" y="700" type="line"/>
    </contour>
  </outline>
</glyph>
<glyph name="P" format="2">
  <advance width="611"/>
  <unicode hex="0050"/>
  <anchor x="306" y="0" name="bottom"/>
  <anchor x="306" y="700" name="top"/>
  <outline>
    <contour>
      <point x="108" y="0" type="line"/>
      <point x="158" y="0" type="line"/>
      <point x="158" y="283" type="line"/>
      <point x="377" y="283" type="line" smooth="yes"/>
      <point x="483.667" y="283"/>
      <point x="561" y="372.667"/>
      <point x="561" y="498" type="curve" smooth="yes"/>
      <point x="561" y="615.333"/>
      <point x="483.667" y="700"/>
      <point x="377" y="700" type="curve" smooth="yes"/>
      <point x="108" y="700" type="line"/>
    </contour>
    <contour>
      <point x="158" y="333" type="line"/>
      <point x="158" y="650" type="line"/>
      <point x="386" y="650" type="line" smooth="yes"/>
      <point x="456.667" y="650"/>
      <point x="508" y="586.667"/>
      <point x="508" y="500" type="curve" smooth="yes"/>
      <point x="508" y="402.667"/>
      <point x="456.667" y="333"/>
      <point x="386" y="333" type="curve" smooth="yes"/>
    </contour>
  </outline>
</glyph>
<glyph name="R" format="2">
  <advance width="627"/>
  <unicode hex="0052"/>
  <anchor x="314" y="0" name="bottom"/>
  <anchor x="304" y="700" name="top"/>
  <outline>
    <contour>
      <point x="108" y="0" type="line"/>
      <point x="158" y="0" type="line"/>
      <point x="158" y="288" type="line"/>
      <point x="370" y="288" type="line" smooth="yes"/>
      <point x="488.667" y="288"/>
      <point x="575" y="369"/>
      <point x="575" y="489" type="curve" smooth="yes"/>
      <point x="575" y="609"/>
      <point x="484" y="700"/>
      <point x="360" y="700" type="curve" smooth="yes"/>
      <point x="108" y="700" type="line"/>
    </contour>
    <contour>
      <point x="544" y="0" type="line"/>
      <point x="602" y="0" type="line"/>
      <point x="412" y="327" type="line"/>
      <point x="370" y="301" type="line"/>
    </contour>
    <contour>
      <point x="158" y="338" type="line"/>
      <point x="158" y="650" type="line"/>
      <point x="357" y="650" type="line" smooth="yes"/>
      <point x="453" y="650"/>
      <point x="522" y="581.667"/>
      <point x="522" y="487" type="curve" smooth="yes"/>
      <point x="522" y="400.333"/>
      <point x="461.333" y="338"/>
      <point x="376" y="338" type="curve" smooth="yes"/>
    </contour>
  </outline>
</glyph>
<glyph name="T" format="2">
  <advance width="517"/>
  <unicode hex="0054"/>
  <anchor x="254" y="0" name="bottom"/>
  <anchor x="259" y="350" name="center"/>
  <anchor x="259" y="700" name="top"/>
  <outline>
    <contour>
      <point x="230" y="0" type="line"/>
      <point x="280" y="0" type="line"/>
      <point x="280" y="650" type="line"/>
      <point x="492" y="650" type="line"/>
      <point x="492" y="700" type="line"/>
      <point x="25" y="700" type="line"/>
      <point x="25" y="650" type="line"/>
      <point x="230" y="650" type="line"/>
    </contour>
  </outline>
</glyph>
<glyph name="X" format="2">
  <advance width="622"/>
  <unicode hex="0058"/>
  <anchor x="311" y="0" name="bottom"/>
  <anchor x="311" y="700" name="top"/>
  <outline>
    <contour>
      <point x="535" y="0" type="line"/>
      <point x="597" y="0" type="line"/>
      <point x="314" y="390" type="line"/>
      <point x="92" y="700" type="line"/>
      <point x="30" y="700" type="line"/>
      <point x="289" y="342" type="line"/>
    </contour>
    <contour>
      <point x="25" y="0" type="line"/>
      <point x="82" y="0" type="line"/>
      <point x="319" y="338" type="line"/>
      <point x="287" y="374" type="line"/>
    </contour>
    <contour>
      <point x="329" y="338" type="line"/>
      <point x="587" y="700" type="line"/>
      <point x="530" y="700" type="line"/>
      <point x="301" y="374" type="line"/>
    </contour>
  </outline>
</glyph>
<glyph name="Y" format="2">
  <advance width="631"/>
  <unicode hex="0059"/>
  <anchor x="316" y="0" name="bottom"/>
  <anchor x="316" y="700" name="top"/>
  <anchor x="20" y="700" name="topleft"/>
  <outline>
    <contour>
      <point x="301" y="0" type="line"/>
      <point x="350" y="0" type="line"/>
      <point x="350" y="357" type="line"/>
      <point x="335" y="289" type="line"/>
      <point x="606" y="700" type="line"/>
      <point x="548" y="700" type="line"/>
      <point x="318" y="348" type="line"/>
      <point x="335" y="348" type="line"/>
      <point x="87" y="700" type="line"/>
      <point x="25" y="700" type="line"/>
      <point x="308" y="300" type="line"/>
      <point x="301" y="349" type="line"/>
    </contour>
  </outline>
</glyph>
<glyph name="Z" format="2">
  <advance width="637"/>
  <unicode hex="005A"/>
  <anchor x="319" y="0" name="bottom"/>
  <anchor x="319" y="350" name="center"/>
  <anchor x="319" y="700" name="top"/>
  <outline>
    <contour>
      <point x="60" y="0" type="line"/>
      <point x="584" y="0" type="line"/>
      <point x="584" y="50" type="line"/>
      <point x="96" y="50" type="line"/>
      <point x="110" y="26" type="line"/>
      <point x="573" y="659" type="line"/>
      <point x="573" y="700" type="line"/>
      <point x="86" y="700" type="line"/>
      <point x="86" y="650" type="line"/>
      <point x="540" y="650" type="line"/>
      <point x="525" y="674" type="line"/>
      <point x="60" y="42" type="line"/>
    </contour>
  </outline>
</glyph>
<glyph name="b" format="2">
  <advance width="608"/>
  <unicode hex="0062"/>
  <anchor x="304" y="0" name="bottom"/>
  <anchor x="304" y="740" name="top"/>
  <outline>
    <contour>
      <point x="328" y="-10" type="curve" smooth="yes"/>
      <point x="469.333" y="-10"/>
      <point x="576" y="104"/>
      <point x="576" y="260" type="curve" smooth="yes"/>
      <point x="576" y="417.333"/>
      <point x="465.333" y="531"/>
      <point x="328" y="531" type="curve" smooth="yes"/>
      <point x="221.333" y="531"/>
      <point x="133.333" y="462.333"/>
      <point x="108" y="373" type="curve"/>
      <point x="123" y="390" type="line"/>
      <point x="123" y="740" type="line"/>
      <point x="73" y="740" type="line"/>
      <point x="73" y="0" type="line"/>
      <point x="121" y="0" type="line"/>
      <point x="126" y="132" type="line"/>
      <point x="108" y="148" type="line"/>
      <point x="133.333" y="58.667"/>
      <point x="221.333" y="-10"/>
    </contour>
    <contour>
      <point x="321" y="40" type="curve" smooth="yes"/>
      <point x="205" y="40"/>
      <point x="119" y="131.667"/>
      <point x="119" y="261" type="curve" smooth="yes"/>
      <point x="119" y="389"/>
      <point x="203.667" y="481"/>
      <point x="321" y="481" type="curve" smooth="yes"/>
      <point x="439.667" y="481"/>
      <point x="523" y="389"/>
      <point x="523" y="261" type="curve" smooth="yes"/>
      <point x="523" y="134.333"/>
      <point x="441" y="40"/>
    </contour>
  </outline>
</glyph>
<glyph name="c" format="2">
  <advance width="518"/>
  <unicode hex="0063"/>
  <anchor x="259" y="0" name="bottom"/>
  <anchor x="259" y="520" name="top"/>
  <outline>
    <contour>
      <point x="291" y="-10" type="curve" smooth="yes"/>
      <point x="369.667" y="-10"/>
      <point x="447" y="25"/>
      <point x="495" y="85" type="curve"/>
      <point x="463" y="124" type="line"/>
      <point x="417.667" y="70.667"/>
      <point x="353.667" y="40"/>
      <point x="287" y="40" type="curve" smooth="yes"/>
      <point x="172.333" y="40"/>
      <point x="85" y="133"/>
      <point x="85" y="261" type="curve" smooth="yes"/>
      <point x="85" y="389"/>
      <point x="172.667" y="481"/>
      <point x="290" y="481" type="curve" smooth="yes"/>
      <point x="358" y="481"/>
      <point x="422" y="450.333"/>
      <point x="466" y="397" type="curve"/>
      <point x="498" y="436" type="line"/>
      <point x="451.333" y="496"/>
      <point x="379.333" y="531"/>
      <point x="294" y="531" type="curve" smooth="yes"/>
      <point x="140.667" y="531"/>
      <point x="32" y="418.333"/>
      <point x="32" y="261" type="curve" smooth="yes"/>
      <point x="32" y="103.667"/>
      <point x="140.333" y="-10"/>
    </contour>
  </outline>
</glyph>
<glyph name="g" format="2">
  <advance width="610"/>
  <unicode hex="0067"/>
  <anchor x="305" y="-230" name="bottom"/>
  <anchor x="305" y="520" name="top"/>
  <outline>
    <contour>
      <point x="289" y="-230" type="curve" smooth="yes"/>
      <point x="434.333" y="-230"/>
      <point x="537" y="-134.667"/>
      <point x="537" y="32" type="curve" smooth="yes"/>
      <point x="537" y="520" type="line"/>
      <point x="487" y="520" type="line"/>
      <point x="482" y="385" type="line"/>
      <point x="501" y="372" type="line"/>
      <point x="475.667" y="462.667"/>
      <point x="386.667" y="531"/>
      <point x="280" y="531" type="curve" smooth="yes"/>
      <point x="142.667" y="531"/>
      <point x="32" y="417.333"/>
      <point x="32" y="260" type="curve" smooth="yes"/>
      <point x="32" y="104"/>
      <point x="138.667" y="-10"/>
      <point x="280" y="-10" type="curve" smooth="yes"/>
      <point x="386.667" y="-10"/>
      <point x="475.667" y="59.667"/>
      <point x="501" y="149" type="curve"/>
      <point x="487" y="136" type="line"/>
      <point x="487" y="38" type="line" smooth="yes"/>
      <point x="487" y="-106"/>
      <point x="412" y="-180"/>
      <point x="292" y="-180" type="curve" smooth="yes"/>
      <point x="220" y="-180"/>
      <point x="161" y="-153.333"/>
      <point x="121" y="-120" type="curve"/>
      <point x="98" y="-167" type="line"/>
      <point x="144.667" y="-201.667"/>
      <point x="209" y="-230"/>
    </contour>
    <contour>
      <point x="287" y="40" type="curve" smooth="yes"/>
      <point x="167" y="40"/>
      <point x="85" y="134.333"/>
      <point x="85" y="261" type="curve" smooth="yes"/>
      <point x="85" y="389"/>
      <point x="168.333" y="481"/>
      <point x="287" y="481" type="curve" smooth="yes"/>
      <point x="403" y="481"/>
      <point x="488" y="389"/>
      <point x="488" y="261" type="curve" smooth="yes"/>
      <point x="488" y="131.667"/>
      <point x="401.667" y="40"/>
    </contour>
  </outline>
</glyph>
<glyph name="k" format="2">
  <advance width="510"/>
  <unicode hex="006B"/>
  <anchor x="254" y="0" name="bottom"/>
  <anchor x="254" y="740" name="top"/>
  <outline>
    <contour>
      <point x="115" y="172" type="line"/>
      <point x="474" y="520" type="line"/>
      <point x="408" y="520" type="line"/>
      <point x="115" y="235" type="line"/>
    </contour>
    <contour>
      <point x="73" y="0" type="line"/>
      <point x="123" y="0" type="line"/>
      <point x="123" y="740" type="line"/>
      <point x="73" y="740" type="line"/>
    </contour>
    <contour>
      <point x="436" y="0" type="line"/>
      <point x="502" y="0" type="line"/>
      <point x="230" y="315" type="line"/>
      <point x="196" y="278" type="line"/>
    </contour>
  </outline>
</glyph>
<glyph name="l" format="2">
  <advance width="200"/>
  <unicode hex="006C"/>
  <anchor x="100" y="0" name="bottom"/>
  <anchor x="100" y="370" name="center"/>
  <anchor x="100" y="740" name="top"/>
  <anchor x="162" y="740" name="topright"/>
  <outline>
    <contour>
      <point x="75" y="0" type="line"/>
      <point x="125" y="0" type="line"/>
      <point x="125" y="740" type="line"/>
      <point x="75" y="740" type="line"/>
    </contour>
  </outline>
</glyph>
<glyph name="m" format="2">
  <advance width="901"/>
  <unicode hex="006D"/>
  <anchor x="451" y="0" name="bottom"/>
  <anchor x="451" y="520" name="top"/>
  <outline>
    <contour>
      <point x="73" y="0" type="line"/>
      <point x="123" y="0" type="line"/>
      <point x="123" y="318" type="line" smooth="yes"/>
      <point x="123" y="404.667"/>
      <point x="195.667" y="483"/>
      <point x="297" y="483" type="curve" smooth="yes"/>
      <point x="381" y="483"/>
      <point x="426" y="429"/>
      <point x="426" y="313" type="curve" smooth="yes"/>
      <point x="426" y="0" type="line"/>
      <point x="476" y="0" type="line"/>
      <point x="476" y="318" type="line" smooth="yes"/>
      <point x="476" y="404.667"/>
      <point x="548.333" y="483"/>
      <point x="651" y="483" type="curve" smooth="yes"/>
      <point x="735" y="483"/>
      <point x="779" y="429"/>
      <point x="779" y="313" type="curve" smooth="yes"/>
      <point x="779" y="0" type="line"/>
      <point x="829" y="0" type="line"/>
      <point x="829" y="315" type="line" smooth="yes"/>
      <point x="829" y="463"/>
      <point x="768" y="531"/>
      <point x="664" y="531" type="curve" smooth="yes"/>
      <point x="565.333" y="531"/>
      <point x="488.66" y="470.747"/>
      <point x="462" y="406" type="curve" smooth="yes"/>
      <point x="455" y="389" type="line"/>
      <point x="475" y="375" type="line"/>
      <point x="448.333" y="499"/>
      <point x="391" y="531"/>
      <point x="315" y="531" type="curve" smooth="yes"/>
      <point x="220.333" y="531"/>
      <point x="139.333" y="481.333"/>
      <point x="114" y="396" type="curve"/>
      <point x="126" y="394" type="line"/>
      <point x="121" y="520" type="line"/>
      <point x="73" y="520" type="line"/>
    </contour>
  </outline>
</glyph>
<glyph name="q" format="2">
  <advance width="610"/>
  <unicode hex="0071"/>
  <anchor x="305" y="0" name="bottom"/>
  <anchor x="305" y="520" name="top"/>
  <outline>
    <contour>
      <point x="487" y="-220" type="line"/>
      <point x="537" y="-220" type="line"/>
      <point x="537" y="520" type="line"/>
      <point x="487" y="520" type="line"/>
      <point x="482" y="385" type="line"/>
      <point x="501" y="372" type="line"/>
      <point x="475.667" y="462.667"/>
      <point x="386.667" y="531"/>
      <point x="280" y="531" type="curve" smooth="yes"/>
      <point x="142.667" y="531"/>
      <point x="32" y="417.333"/>
      <point x="32" y="260" type="curve" smooth="yes"/>
      <point x="32" y="104"/>
      <point x="138.667" y="-10"/>
      <point x="280" y="-10" type="curve" smooth="yes"/>
      <point x="386.667" y="-10"/>
      <point x="475.667" y="59.667"/>
      <point x="501" y="149" type="curve"/>
      <point x="487" y="131" type="line"/>
    </contour>
    <contour>
      <point x="287" y="40" type="curve" smooth="yes"/>
      <point x="167" y="40"/>
      <point x="85" y="134.333"/>
      <point x="85" y="261" type="curve" smooth="yes"/>
      <point x="85" y="389"/>
      <point x="168.333" y="481"/>
      <point x="287" y="481" type="curve" smooth="yes"/>
      <point x="404.333" y="481"/>
      <point x="491" y="389"/>
      <point x="491" y="261" type="curve" smooth="yes"/>
      <point x="491" y="131.667"/>
      <point x="403" y="40"/>
    </contour>
  </outline>
</glyph>
<glyph name="t" format="2">
  <advance width="359"/>
  <unicode hex="0074"/>
  <anchor x="180" y="0" name="bottom"/>
  <anchor x="180" y="260" name="center"/>
  <anchor x="176" y="612" name="top"/>
  <anchor x="223" y="740" name="topright"/>
  <outline>
    <contour>
      <point x="152" y="0" type="line"/>
      <point x="202" y="0" type="line"/>
      <point x="202" y="659" type="line"/>
      <point x="152" y="659" type="line"/>
    </contour>
    <contour>
      <point x="27" y="474" type="line"/>
      <point x="342" y="474" type="line"/>
      <point x="342" y="520" type="line"/>
      <point x="27" y="520" type="line"/>
    </contour>
  </outline>
</glyph>
<glyph name="braceleft" format="2">
  <advance width="405"/>
  <unicode hex="007B"/>
  <outline>
    <contour>
      <point x="365" y="-192" type="curve"/>
      <point x="375" y="-154" type="line"/>
      <point x="276.333" y="-120.667"/>
      <point x="245" y="-89"/>
      <point x="245" y="7" type="curve" smooth="yes"/>
      <point x="247" y="102" type="line" smooth="yes"/>
      <point x="247" y="178"/>
      <point x="216" y="229.333"/>
      <point x="152" y="252" type="curve"/>
      <point x="153" y="249" type="line"/>
      <point x="215.667" y="267.667"/>
      <point x="247" y="320.667"/>
      <point x="247" y="398" type="curve" smooth="yes"/>
      <point x="245" y="493" type="line" smooth="yes"/>
      <point x="245" y="589"/>
      <point x="276.333" y="620.667"/>
      <point x="375" y="654" type="curve"/>
      <point x="365" y="692" type="line"/>
      <point x="255.667" y="666.667"/>
      <point x="196" y="612.333"/>
      <point x="196" y="507" type="curve" smooth="yes"/>
      <point x="197" y="412" type="line" smooth="yes"/>
      <point x="197" y="322.667"/>
      <point x="158.333" y="272.333"/>
      <point x="85" y="271" type="curve" smooth="yes"/>
      <point x="50" y="271" type="line"/>
      <point x="50" y="229" type="line"/>
      <point x="83" y="229" type="line" smooth="yes"/>
      <point x="156.333" y="227.667"/>
      <point x="197" y="176"/>
      <point x="197" y="88" type="curve" smooth="yes"/>
      <point x="196" y="-7" type="line" smooth="yes"/>
      <point x="196" y="-112.333"/>
      <point x="255.667" y="-166.667"/>
    </contour>
  </outline>
</glyph>
<glyph name="braceright" format="2">
  <advance width="405"/>
  <unicode hex="007D"/>
  <outline>
    <contour>
      <point x="40" y="-192" type="line"/>
      <point x="149" y="-167"/>
      <point x="209" y="-112"/>
      <point x="209" y="-7" type="curve" smooth="yes"/>
      <point x="208" y="88" type="line" smooth="yes"/>
      <point x="208" y="177"/>
      <point x="247" y="228"/>
      <point x="320" y="229" type="curve" smooth="yes"/>
      <point x="355" y="229" type="line"/>
      <point x="355" y="271" type="line"/>
      <point x="322" y="271" type="line" smooth="yes"/>
      <point x="249" y="272"/>
      <point x="208" y="324"/>
      <point x="208" y="412" type="curve" smooth="yes"/>
      <point x="209" y="507" type="line" smooth="yes"/>
      <point x="209" y="612"/>
      <point x="149" y="667"/>
      <point x="40" y="692" type="curve"/>
      <point x="30" y="654" type="line"/>
      <point x="129" y="621"/>
      <point x="160" y="589"/>
      <point x="160" y="493" type="curve" smooth="yes"/>
      <point x="158" y="398" type="line" smooth="yes"/>
      <point x="158" y="322"/>
      <point x="189" y="271"/>
      <point x="253" y="248" type="curve"/>
      <point x="252" y="251" type="line"/>
      <point x="189" y="232"/>
      <point x="158" y="179"/>
      <point x="158" y="102" type="curve" smooth="yes"/>
      <point x="160" y="7" type="line" smooth="yes"/>
      <point x="160" y="-89"/>
      <point x="129" y="-121"/>
      <point x="30" y="-154" type="curve"/>
    </contour>
  </outline>
</glyph>
<glyph name="cent" format="2">
  <advance width="536"/>
  <unicode hex="00A2"/>
  <outline>
    <contour>
      <point x="309" y="78" type="curve" smooth="yes"/>
      <point x="393" y="78"/>
      <point x="466" y="113"/>
      <point x="514" y="173" type="curve"/>
      <point x="481" y="210" type="line"/>
      <point x="431.667" y="154"/>
      <point x="373" y="128"/>
      <point x="301" y="128" type="curve" smooth="yes"/>
      <point x="191.667" y="128"/>
      <point x="103" y="221"/>
      <point x="103" y="349" type="curve" smooth="yes"/>
      <point x="103" y="477"/>
      <point x="190.667" y="569"/>
      <point x="308" y="569" type="curve" smooth="yes"/>
      <point x="376" y="569"/>
      <point x="440" y="538.333"/>
      <point x="484" y="485" type="curve"/>
      <point x="516" y="524" type="line"/>
      <point x="469.333" y="584"/>
      <point x="397.333" y="619"/>
      <point x="312" y="619" type="curve" smooth="yes"/>
      <point x="158.667" y="619"/>
      <point x="50" y="506.333"/>
      <point x="50" y="349" type="curve" smooth="yes"/>
      <point x="50" y="191.667"/>
      <point x="158.333" y="78"/>
    </contour>
    <contour>
      <point x="277" y="0" type="line"/>
      <point x="327" y="0" type="line"/>
      <point x="327" y="87" type="line"/>
      <point x="326" y="121" type="line"/>
      <point x="326" y="577" type="line"/>
      <point x="327" y="605" type="line"/>
      <point x="327" y="700" type="line"/>
      <point x="277" y="700" type="line"/>
      <point x="277" y="606" type="line"/>
      <point x="278" y="577" type="line"/>
      <point x="278" y="122" type="line"/>
      <point x="277" y="88" type="line"/>
    </contour>
  </outline>
</glyph>
<glyph name="currency" format="2">
  <advance width="559"/>
  <unicode hex="00A4"/>
  <outline>
    <contour>
      <point x="279" y="122" type="curve" smooth="yes"/>
      <point x="377.667" y="122"/>
      <point x="457" y="202"/>
      <point x="457" y="302" type="curve" smooth="yes"/>
      <point x="457" y="400.667"/>
      <point x="376.333" y="482"/>
      <point x="279" y="482" type="curve" smooth="yes"/>
      <point x="180.333" y="482"/>
      <point x="101" y="402"/>
      <point x="101" y="302" type="curve" smooth="yes"/>
      <point x="101" y="202"/>
      <point x="180.333" y="122"/>
    </contour>
    <contour>
      <point x="103" y="106" type="line"/>
      <point x="184" y="182" type="line"/>
      <point x="148" y="217" type="line"/>
      <point x="68" y="142" type="line"/>
    </contour>
    <contour>
      <point x="148" y="393" type="line"/>
      <point x="184" y="428" type="line"/>
      <point x="103" y="504" type="line"/>
      <point x="68" y="468" type="line"/>
    </contour>
    <contour>
      <point x="279" y="168" type="curve" smooth="yes"/>
      <point x="201.667" y="168"/>
      <point x="148" y="223.333"/>
      <point x="148" y="302" type="curve" smooth="yes"/>
      <point x="148" y="379.333"/>
      <point x="201.667" y="436"/>
      <point x="279" y="436" type="curve" smooth="yes"/>
      <point x="357.667" y="436"/>
      <point x="410" y="379.333"/>
      <point x="410" y="302" type="curve" smooth="yes"/>
      <point x="410" y="223.333"/>
      <point x="357.667" y="168"/>
    </contour>
    <contour>
      <point x="456" y="106" type="line"/>
      <point x="491" y="142" type="line"/>
      <point x="411" y="217" type="line"/>
      <point x="375" y="182" type="line"/>
    </contour>
    <contour>
      <point x="411" y="393" type="line"/>
      <point x="491" y="468" type="line"/>
      <point x="456" y="504" type="line"/>
      <point x="375" y="428" type="line"/>
    </contour>
  </outline>
</glyph>
<glyph name="yen" format="2">
  <advance width="631"/>
  <unicode hex="00A5"/>
  <outline>
    <contour>
      <point x="301" y="0" type="line"/>
      <point x="350" y="0" type="line"/>
      <point x="350" y="357" type="line"/>
      <point x="335" y="289" type="line"/>
      <point x="606" y="700" type="line"/>
      <point x="548" y="700" type="line"/>
      <point x="318" y="348" type="line"/>
      <point x="335" y="348" type="line"/>
      <point x="87" y="700" type="line"/>
      <point x="25" y="700" type="line"/>
      <point x="308" y="300" type="line"/>
      <point x="301" y="349" type="line"/>
    </contour>
    <contour>
      <point x="146" y="124" type="line"/>
      <point x="508" y="124" type="line"/>
      <point x="508" y="172" type="line"/>
      <point x="146" y="172" type="line"/>
    </contour>
    <contour>
      <point x="146" y="268" type="line"/>
      <point x="508" y="268" type="line"/>
      <point x="508" y="316" type="line"/>
      <point x="146" y="316" type="line"/>
    </contour>
  </outline>
</glyph>
<glyph name="section" format="2">
  <advance width="542"/>
  <unicode hex="00A7"/>
  <outline>
    <contour>
      <point x="310" y="159" type="line"/>
      <point x="407" y="163"/>
      <point x="475" y="217"/>
      <point x="475" y="301" type="curve" smooth="yes"/>
      <point x="475" y="367"/>
      <point x="427" y="406"/>
      <point x="358" y="430" type="curve" smooth="yes"/>
      <point x="240" y="472" type="line" smooth="yes"/>
      <point x="189" y="490"/>
      <point x="158" y="518"/>
      <point x="158" y="566" type="curve" smooth="yes"/>
      <point x="158" y="623"/>
      <point x="207" y="657"/>
      <point x="275" y="657" type="curve" smooth="yes"/>
      <point x="338" y="657"/>
      <point x="392" y="629"/>
      <point x="435" y="593" type="curve"/>
      <point x="461" y="634" type="line"/>
      <point x="411" y="672"/>
      <point x="353" y="703"/>
      <point x="279" y="703" type="curve" smooth="yes"/>
      <point x="175" y="703"/>
      <point x="105" y="642"/>
      <point x="105" y="566" type="curve" smooth="yes"/>
      <point x="105" y="495"/>
      <point x="163" y="446"/>
      <point x="207" y="431" type="curve" smooth="yes"/>
      <point x="341" y="384" type="line" smooth="yes"/>
      <point x="405" y="361"/>
      <point x="423" y="338"/>
      <point x="423" y="301" type="curve" smooth="yes"/>
      <point x="423" y="231"/>
      <point x="361" y="197"/>
      <point x="296" y="191" type="curve"/>
    </contour>
    <contour>
      <point x="281" y="-83" type="curve" smooth="yes"/>
      <point x="385" y="-83"/>
      <point x="455" y="-22"/>
      <point x="455" y="54" type="curve" smooth="yes"/>
      <point x="455" y="125"/>
      <point x="405" y="171"/>
      <point x="359" y="187" type="curve" smooth="yes"/>
      <point x="190" y="247" type="line" smooth="yes"/>
      <point x="145" y="263"/>
      <point x="131" y="295"/>
      <point x="131" y="324" type="curve" smooth="yes"/>
      <point x="131" y="392"/>
      <point x="200" y="423"/>
      <point x="264" y="429" type="curve"/>
      <point x="250" y="461" type="line"/>
      <point x="154" y="457"/>
      <point x="80" y="403"/>
      <point x="80" y="324" type="curve" smooth="yes"/>
      <point x="80" y="257"/>
      <point x="123" y="219"/>
      <point x="173" y="201" type="curve" smooth="yes"/>
      <point x="320" y="148" type="line" smooth="yes"/>
      <point x="371" y="130"/>
      <point x="402" y="102"/>
      <point x="402" y="54" type="curve" smooth="yes"/>
      <point x="402" y="-3"/>
      <point x="353" y="-37"/>
      <point x="285" y="-37" type="curve" smooth="yes"/>
      <point x="211" y="-37"/>
      <point x="149" y="-13"/>
      <point x="99" y="29" type="curve"/>
      <point x="74" y="-10" type="line"/>
      <point x="123" y="-51"/>
      <point x="196" y="-83"/>
    </contour>
  </outline>
</glyph>
<glyph name="copyright" format="2">
  <advance width="786"/>
  <unicode hex="00A9"/>
  <outline>
    <contour>
      <point x="393" y="-7" type="curve" smooth="yes"/>
      <point x="590.333" y="-7"/>
      <point x="750" y="151.333"/>
      <point x="750" y="350" type="curve" smooth="yes"/>
      <point x="750" y="548.667"/>
      <point x="590.333" y="707"/>
      <point x="393" y="707" type="curve" smooth="yes"/>
      <point x="194.333" y="707"/>
      <point x="36" y="548.667"/>
      <point x="36" y="350" type="curve" smooth="yes"/>
      <point x="36" y="151.333"/>
      <point x="194.333" y="-7"/>
    </contour>
    <contour>
      <point x="403" y="142" type="curve" smooth="yes"/>
      <point x="449.667" y="142"/>
      <point x="496" y="157"/>
      <point x="536" y="185" type="curve"/>
      <point x="516" y="221" type="line"/>
      <point x="481.333" y="197"/>
      <point x="447" y="187"/>
      <point x="403" y="187" type="curve" smooth="yes"/>
      <point x="309.667" y="187"/>
      <point x="237" y="258"/>
      <point x="237" y="350" type="curve" smooth="yes"/>
      <point x="237" y="436.667"/>
      <point x="311" y="512"/>
      <point x="403" y="512" type="curve" smooth="yes"/>
      <point x="448.333" y="512"/>
      <point x="489.667" y="493.667"/>
      <point x="511" y="475" type="curve"/>
      <point x="532" y="512" type="line"/>
      <point x="493.333" y="541.333"/>
      <point x="448.333" y="557"/>
      <point x="403" y="557" type="curve" smooth="yes"/>
      <point x="283" y="557"/>
      <point x="189" y="464.667"/>
      <point x="189" y="350" type="curve" smooth="yes"/>
      <point x="189" y="230"/>
      <point x="283" y="142"/>
    </contour>
    <contour>
      <point x="393" y="41" type="curve" smooth="yes"/>
      <point x="221" y="41"/>
      <point x="84" y="177.565"/>
      <point x="84" y="350" type="curve" smooth="yes"/>
      <point x="84" y="523.751"/>
      <point x="221" y="659"/>
      <point x="393" y="659" type="curve" smooth="yes"/>
      <point x="565" y="659"/>
      <point x="702" y="523.333"/>
      <point x="702" y="350" type="curve" smooth="yes"/>
      <point x="702" y="178"/>
      <point x="565.435" y="41"/>
    </contour>
  </outline>
</glyph>
<glyph name="degree" format="2">
  <advance width="532"/>
  <unicode hex="00B0"/>
  <outline>
    <contour>
      <point x="266" y="399" type="curve" smooth="yes"/>
      <point x="354" y="399"/>
      <point x="422" y="467.333"/>
      <point x="422" y="554" type="curve" smooth="yes"/>
      <point x="422" y="640.667"/>
      <point x="355.333" y="709"/>
      <point x="266" y="709" type="curve" smooth="yes"/>
      <point x="176.667" y="709"/>
      <point x="110" y="641"/>
      <point x="110" y="553" type="curve" smooth="yes"/>
      <point x="110" y="467.667"/>
      <point x="178" y="399"/>
    </contour>
    <contour>
      <point x="266" y="438" type="curve" smooth="yes"/>
      <point x="206" y="438"/>
      <point x="156" y="489.784"/>
      <point x="156" y="553" type="curve" smooth="yes"/>
      <point x="156" y="617.552"/>
      <point x="204.667" y="670"/>
      <point x="266" y="670" type="curve" smooth="yes"/>
      <point x="326" y="670"/>
      <point x="376" y="617.212"/>
      <point x="376" y="554" type="curve" smooth="yes"/>
      <point x="376" y="491.333"/>
      <point x="326.551" y="438"/>
    </contour>
  </outline>
</glyph>
<glyph name="plusminus" format="2">
  <advance width="598"/>
  <unicode hex="00B1"/>
  <outline>
    <contour>
      <point x="60" y="326" type="line"/>
      <point x="538" y="326" type="line"/>
      <point x="538" y="374" type="line"/>
      <point x="60" y="374" type="line"/>
    </contour>
    <contour>
      <point x="60" y="42" type="line"/>
      <point x="538" y="42" type="line"/>
      <point x="538" y="90" type="line"/>
      <point x="60" y="90" type="line"/>
    </contour>
    <contour>
      <point x="274" y="167" type="line"/>
      <point x="324" y="167" type="line"/>
      <point x="324" y="525" type="line"/>
      <point x="274" y="525" type="line"/>
    </contour>
  </outline>
</glyph>
<glyph name="paragraph" format="2">
  <advance width="615"/>
  <unicode hex="00B6"/>
  <outline>
    <contour>
      <point x="278" y="0" type="line"/>
      <point x="328" y="0" type="line"/>
      <point x="328" y="681" type="line"/>
      <point x="284" y="655" type="line"/>
      <point x="485" y="655" type="line"/>
      <point x="457" y="680" type="line"/>
      <point x="457" y="0" type="line"/>
      <point x="507" y="0" type="line"/>
      <point x="507" y="700" type="line"/>
      <point x="275" y="700" type="line" smooth="yes"/>
      <point x="139" y="700"/>
      <point x="50" y="615.333"/>
      <point x="50" y="486" type="curve" smooth="yes"/>
      <point x="50" y="366"/>
      <point x="130" y="279"/>
      <point x="238" y="279" type="curve" smooth="yes"/>
      <point x="302" y="279" type="line"/>
      <point x="278" y="314" type="line"/>
    </contour>
  </outline>
</glyph>
<glyph name="ordmasculine" format="2">
  <advance width="354"/>
  <unicode hex="00BA"/>
  <outline>
    <contour>
      <point x="176" y="392" type="curve" smooth="yes"/>
      <point x="260.928" y="392"/>
      <point x="324" y="459.667"/>
      <point x="324" y="549" type="curve" smooth="yes"/>
      <point x="324" y="639.667"/>
      <point x="259.679" y="710"/>
      <point x="176" y="710" type="curve" smooth="yes"/>
      <point x="92.393" y="710"/>
      <point x="30" y="641"/>
      <point x="30" y="549" type="curve" smooth="yes"/>
      <point x="30" y="458.333"/>
      <point x="92.393" y="392"/>
    </contour>
    <contour>
      <point x="176" y="432" type="curve" smooth="yes"/>
      <point x="115.233" y="432"/>
      <point x="73" y="479.667"/>
      <point x="73" y="549" type="curve" smooth="yes"/>
      <point x="73" y="621"/>
      <point x="112.803" y="670"/>
      <point x="176" y="670" type="curve" smooth="yes"/>
      <point x="238.899" y="670"/>
      <point x="281" y="621"/>
      <point x="281" y="549" type="curve" smooth="yes"/>
      <point x="281" y="479.667"/>
      <point x="238.899" y="432"/>
    </contour>
  </outline>
</glyph>
<glyph name="AE" format="2">
  <advance width="942"/>
  <unicode hex="00C6"/>
  <anchor x="471" y="0" name="bottom"/>
  <anchor x="578" y="700" name="top"/>
  <outline>
    <contour>
      <point x="0" y="0" type="line"/>
      <point x="60" y="0" type="line"/>
      <point x="491" y="620" type="line"/>
      <point x="465" y="628" type="line"/>
      <point x="465" y="241" type="line"/>
      <point x="212" y="241" type="line"/>
      <point x="178" y="191" type="line"/>
      <point x="465" y="191" type="line"/>
      <point x="465" y="0" type="line"/>
      <point x="868" y="0" type="line"/>
      <point x="868" y="50" type="line"/>
      <point x="515" y="50" type="line"/>
      <point x="515" y="336" type="line"/>
      <point x="815" y="336" type="line"/>
      <point x="815" y="386" type="line"/>
      <point x="515" y="386" type="line"/>
      <point x="515" y="650" type="line"/>
      <point x="872" y="650" type="line"/>
      <point x="872" y="700" type="line"/>
      <point x="486" y="700" type="line"/>
    </contour>
  </outline>
</glyph>
<glyph name="Eth" format="2">
  <advance width="739"/>
  <unicode hex="00D0"/>
  <anchor x="370" y="0" name="bottom"/>
  <anchor x="176" y="350" name="center"/>
  <anchor x="370" y="700" name="top"/>
  <outline>
    <contour>
      <point x="42" y="327" type="line"/>
      <point x="310" y="327" type="line"/>
      <point x="310" y="372" type="line"/>
      <point x="42" y="372" type="line"/>
    </contour>
    <component base="D"/>
  </outline>
</glyph>
<glyph name="multiply" format="2">
  <advance width="457"/>
  <unicode hex="00D7"/>
  <outline>
    <contour>
      <point x="381" y="94" type="line"/>
      <point x="417" y="129" type="line"/>
      <point x="75" y="470" type="line"/>
      <point x="40" y="435" type="line"/>
    </contour>
    <contour>
      <point x="74" y="97" type="line"/>
      <point x="414" y="437" type="line"/>
      <point x="380" y="471" type="line"/>
      <point x="40" y="131" type="line"/>
    </contour>
  </outline>
</glyph>
<glyph name="ae" format="2">
  <advance width="882"/>
  <unicode hex="00E6"/>
  <anchor x="441" y="0" name="bottom"/>
  <anchor x="441" y="520" name="top"/>
  <outline>
    <contour>
      <point x="210" y="-10" type="curve" smooth="yes"/>
      <point x="304.667" y="-10"/>
      <point x="399.333" y="42.667"/>
      <point x="446" y="124" type="curve"/>
      <point x="414" y="161" type="line"/>
      <point x="376.667" y="90.333"/>
      <point x="300.667" y="40"/>
      <point x="214" y="40" type="curve" smooth="yes"/>
      <point x="139.333" y="40"/>
      <point x="85" y="84.333"/>
      <point x="85" y="151" type="curve" smooth="yes"/>
      <point x="85" y="217.667"/>
      <point x="145.667" y="257"/>
      <point x="255" y="257" type="curve" smooth="yes"/>
      <point x="853" y="257" type="line"/>
      <point x="854" y="283" type="line" smooth="yes"/>
      <point x="854" y="429.667"/>
      <point x="773.667" y="531"/>
      <point x="635" y="531" type="curve" smooth="yes"/>
      <point x="489.667" y="531"/>
      <point x="394" y="431.667"/>
      <point x="394" y="261" type="curve" smooth="yes"/>
      <point x="394" y="99.667"/>
      <point x="499" y="-10"/>
      <point x="647" y="-10" type="curve" smooth="yes"/>
      <point x="731" y="-10"/>
      <point x="797" y="24.333"/>
      <point x="841" y="67" type="curve"/>
      <point x="815" y="104" type="line"/>
      <point x="751" y="52"/>
      <point x="704" y="40"/>
      <point x="656" y="40" type="curve" smooth="yes"/>
      <point x="521.333" y="40"/>
      <point x="447" y="128"/>
      <point x="447" y="264" type="curve" smooth="yes"/>
      <point x="447" y="405.333"/>
      <point x="526" y="481"/>
      <point x="634" y="481" type="curve" smooth="yes"/>
      <point x="750" y="481"/>
      <point x="805.333" y="387"/>
      <point x="804" y="307" type="curve" smooth="yes"/>
      <point x="804" y="284" type="line"/>
      <point x="826" y="304" type="line"/>
      <point x="268" y="304" type="line" smooth="yes"/>
      <point x="112" y="304"/>
      <point x="32" y="251.667"/>
      <point x="32" y="149" type="curve" smooth="yes"/>
      <point x="32" y="53"/>
      <point x="108.667" y="-10"/>
    </contour>
    <contour>
      <point x="394" y="289" type="line"/>
      <point x="438" y="289" type="line"/>
      <point x="438" y="374" type="line" smooth="yes"/>
      <point x="438" y="474"/>
      <point x="364" y="531"/>
      <point x="248" y="531" type="curve" smooth="yes"/>
      <point x="165.333" y="531"/>
      <point x="96.667" y="498"/>
      <point x="34" y="430" type="curve"/>
      <point x="70" y="395" type="line"/>
      <point x="119.333" y="451"/>
      <point x="174" y="481"/>
      <point x="246" y="481" type="curve" smooth="yes"/>
      <point x="348.667" y="481"/>
      <point x="394" y="433.333"/>
      <point x="394" y="364" type="curve" smooth="yes"/>
    </contour>
  </outline>
</glyph>
<glyph name="divide" format="2">
  <advance width="591"/>
  <unicode hex="00F7"/>
  <outline>
    <contour>
      <point x="54" y="268" type="line"/>
      <point x="535" y="268" type="line"/>
      <point x="535" y="316" type="line"/>
      <point x="54" y="316" type="line"/>
    </contour>
    <contour>
      <point x="295" y="81" type="curve" smooth="yes"/>
      <point x="324.333" y="81"/>
      <point x="341" y="99.333"/>
      <point x="341" y="126" type="curve" smooth="yes"/>
      <point x="341" y="154"/>
      <point x="324.333" y="171"/>
      <point x="295" y="171" type="curve" smooth="yes"/>
      <point x="265.667" y="171"/>
      <point x="249" y="152.667"/>
      <point x="249" y="126" type="curve" smooth="yes"/>
      <point x="249" y="98"/>
      <point x="265.667" y="81"/>
    </contour>
    <contour>
      <point x="296" y="399" type="curve" smooth="yes"/>
      <point x="325.333" y="399"/>
      <point x="342" y="417.333"/>
      <point x="342" y="444" type="curve" smooth="yes"/>
      <point x="342" y="472"/>
      <point x="325.333" y="489"/>
      <point x="296" y="489" type="curve" smooth="yes"/>
      <point x="266.667" y="489"/>
      <point x="250" y="470.667"/>
      <point x="250" y="444" type="curve" smooth="yes"/>
      <point x="250" y="416"/>
      <point x="266.667" y="399"/>
    </contour>
  </outline>
</glyph>
<glyph name="oslash" format="2">
  <advance width="599"/>
  <unicode hex="00F8"/>
  <anchor x="300" y="520" name="top"/>
  <anchor x="300" y="0" name="bottom"/>
  <anchor x="300" y="260" name="center"/>
  <anchor x="431" y="0" name="ogonek"/>
  <anchor x="579" y="520" name="topright"/>
  <outline>
    <contour>
      <point x="85" y="-24" type="line"/>
      <point x="549" y="519" type="line"/>
      <point x="514" y="545" type="line"/>
      <point x="51" y="1" type="line"/>
    </contour>
    <component base="o"/>
  </outline>
</glyph>
<glyph name="dcroat" format="2">
  <advance width="609"/>
  <unicode hex="0111"/>
  <anchor x="481" y="634" name="_center"/>
  <anchor x="305" y="0" name="bottom"/>
  <anchor x="481" y="634" name="center"/>
  <anchor x="305" y="740" name="top"/>
  <anchor x="559" y="740" name="topright"/>
  <outline>
    <contour>
      <point x="347" y="611" type="line"/>
      <point x="615" y="611" type="line"/>
      <point x="615" y="656" type="line"/>
      <point x="347" y="656" type="line"/>
    </contour>
    <component base="d"/>
  </outline>
</glyph>
<glyph name="Hbar" format="2">
  <advance width="744"/>
  <unicode hex="0126"/>
  <anchor x="372" y="0" name="bottom"/>
  <anchor x="372" y="350" name="center"/>
  <anchor x="372" y="700" name="top"/>
  <anchor x="20" y="700" name="topleft"/>
  <outline>
    <contour>
      <point x="28" y="536" type="line"/>
      <point x="117" y="536" type="line"/>
      <point x="148" y="536" type="line"/>
      <point x="600" y="536" type="line"/>
      <point x="623" y="536" type="line"/>
      <point x="716" y="536" type="line"/>
      <point x="716" y="582" type="line"/>
      <point x="618" y="582" type="line"/>
      <point x="601" y="582" type="line"/>
      <point x="143" y="582" type="line"/>
      <point x="117" y="582" type="line"/>
      <point x="28" y="582" type="line"/>
    </contour>
    <component base="H"/>
  </outline>
</glyph>
<glyph name="hbar" format="2">
  <advance width="558"/>
  <unicode hex="0127"/>
  <anchor x="279" y="0" name="bottom"/>
  <anchor x="126" y="638" name="center"/>
  <anchor x="279" y="740" name="top"/>
  <outline>
    <contour>
      <point x="-8" y="615" type="line"/>
      <point x="260" y="615" type="line"/>
      <point x="260" y="660" type="line"/>
      <point x="-8" y="660" type="line"/>
    </contour>
    <component base="h"/>
  </outline>
</glyph>
<glyph name="kgreenlandic" format="2">
  <advance width="500"/>
  <unicode hex="0138"/>
  <anchor x="249" y="0" name="bottom"/>
  <anchor x="249" y="520" name="top"/>
  <outline>
    <contour>
      <point x="105" y="172" type="line"/>
      <point x="464" y="520" type="line"/>
      <point x="398" y="520" type="line"/>
      <point x="105" y="235" type="line"/>
    </contour>
    <contour>
      <point x="73" y="0" type="line"/>
      <point x="123" y="0" type="line"/>
      <point x="123" y="520" type="line"/>
      <point x="73" y="520" type="line"/>
    </contour>
    <contour>
      <point x="426" y="0" type="line"/>
      <point x="492" y="0" type="line"/>
      <point x="220" y="315" type="line"/>
      <point x="186" y="278" type="line"/>
    </contour>
  </outline>
</glyph>
<glyph name="Lslash" format="2">
  <advance width="536"/>
  <unicode hex="0141"/>
  <anchor x="268" y="0" name="bottom"/>
  <anchor x="135" y="350" name="center"/>
  <anchor x="134" y="700" name="top"/>
  <anchor x="285" y="700" name="topright"/>
  <outline>
    <contour>
      <point x="24" y="291" type="line"/>
      <point x="298" y="414" type="line"/>
      <point x="281" y="456" type="line"/>
      <point x="7" y="332" type="line"/>
    </contour>
    <component base="L"/>
  </outline>
</glyph>
<glyph name="lslash" format="2">
  <advance width="268"/>
  <unicode hex="0142"/>
  <anchor x="133" y="0" name="bottom"/>
  <anchor x="133" y="370" name="center"/>
  <anchor x="133" y="740" name="top"/>
  <anchor x="185" y="740" name="topright"/>
  <outline>
    <contour>
      <point x="18" y="287" type="line"/>
      <point x="267" y="394" type="line"/>
      <point x="249" y="437" type="line"/>
      <point x="0" y="330" type="line"/>
    </contour>
    <component base="l" xOffset="33"/>
  </outline>
</glyph>
<glyph name="oe" format="2">
  <advance width="1022"/>
  <unicode hex="0153"/>
  <anchor x="540" y="0" name="bottom"/>
  <anchor x="540" y="520" name="top"/>
  <outline>
    <contour>
      <point x="300" y="-10" type="curve" smooth="yes"/>
      <point x="421" y="-10"/>
      <point x="515" y="59"/>
      <point x="551" y="163" type="curve"/>
      <point x="528" y="164" type="line"/>
      <point x="562" y="58"/>
      <point x="654" y="-10"/>
      <point x="772" y="-10" type="curve" smooth="yes"/>
      <point x="859" y="-10"/>
      <point x="927" y="24"/>
      <point x="971" y="67" type="curve"/>
      <point x="945" y="104" type="line"/>
      <point x="880" y="51"/>
      <point x="830" y="40"/>
      <point x="781" y="40" type="curve" smooth="yes"/>
      <point x="643" y="40"/>
      <point x="568" y="127"/>
      <point x="568" y="277" type="curve" smooth="yes"/>
      <point x="568" y="413"/>
      <point x="657" y="481"/>
      <point x="764" y="481" type="curve" smooth="yes"/>
      <point x="887" y="481"/>
      <point x="944" y="387"/>
      <point x="944" y="307" type="curve" smooth="yes"/>
      <point x="944" y="274" type="line"/>
      <point x="972" y="301" type="line"/>
      <point x="558" y="301" type="line"/>
      <point x="556" y="255" type="line"/>
      <point x="993" y="255" type="line"/>
      <point x="994" y="282" type="line" smooth="yes"/>
      <point x="999" y="429"/>
      <point x="910" y="531"/>
      <point x="765" y="531" type="curve" smooth="yes"/>
      <point x="650" y="531"/>
      <point x="562" y="462"/>
      <point x="529" y="359" type="curve"/>
      <point x="551" y="359" type="line"/>
      <point x="515" y="463"/>
      <point x="421" y="531"/>
      <point x="300" y="531" type="curve" smooth="yes"/>
      <point x="144" y="531"/>
      <point x="32" y="419"/>
      <point x="32" y="263" type="curve" smooth="yes"/>
      <point x="32" y="104.333"/>
      <point x="144" y="-10"/>
    </contour>
    <contour>
      <point x="300" y="40" type="curve" smooth="yes"/>
      <point x="174.667" y="40"/>
      <point x="85" y="133.667"/>
      <point x="85" y="263" type="curve" smooth="yes"/>
      <point x="85" y="389.667"/>
      <point x="174.667" y="481"/>
      <point x="300" y="481" type="curve" smooth="yes"/>
      <point x="424" y="481"/>
      <point x="514" y="389.667"/>
      <point x="514" y="263" type="curve" smooth="yes"/>
      <point x="514" y="133.667"/>
      <point x="424" y="40"/>
    </contour>
  </outline>
</glyph>
<glyph name="ohorn" format="2">
  <advance width="599"/>
  <unicode hex="01A1"/>
  <guideline x="501" y="624" angle="0"/>
  <anchor x="300" y="0" name="bottom"/>
  <anchor x="300" y="520" name="top"/>
  <outline>
    <contour>
      <point x="300" y="-10" type="curve" smooth="yes"/>
      <point x="456" y="-10"/>
      <point x="567" y="104.333"/>
      <point x="567" y="263" type="curve" smooth="yes"/>
      <point x="567" y="372"/>
      <point x="513" y="460"/>
      <point x="427" y="502" type="curve"/>
      <point x="419" y="483" type="line"/>
      <point x="501" y="487"/>
      <point x="549" y="541"/>
      <point x="549" y="624" type="curve"/>
      <point x="501" y="624" type="line"/>
      <point x="501" y="554"/>
      <point x="470" y="520"/>
      <point x="408" y="520" type="curve" smooth="yes"/>
      <point x="394.129" y="520"/>
      <point x="380" y="521"/>
      <point x="366.387" y="523.795" type="curve" smooth="yes"/>
      <point x="345" y="528"/>
      <point x="323.196" y="531"/>
      <point x="300" y="531" type="curve" smooth="yes"/>
      <point x="144" y="531"/>
      <point x="32" y="419"/>
      <point x="32" y="263" type="curve" smooth="yes"/>
      <point x="32" y="104.333"/>
      <point x="144" y="-10"/>
    </contour>
    <contour>
      <point x="300" y="40" type="curve" smooth="yes"/>
      <point x="174.667" y="40"/>
      <point x="85" y="133.667"/>
      <point x="85" y="263" type="curve" smooth="yes"/>
      <point x="85" y="389.667"/>
      <point x="174.667" y="481"/>
      <point x="300" y="481" type="curve" smooth="yes"/>
      <point x="424" y="481"/>
      <point x="514" y="389.667"/>
      <point x="514" y="263" type="curve" smooth="yes"/>
      <point x="514" y="133.667"/>
      <point x="424" y="40"/>
    </contour>
  </outline>
</glyph>
<glyph name="jdotless" format="2">
  <advance width="228"/>
  <unicode hex="0237"/>
  <anchor x="114" y="-230" name="bottom"/>
  <anchor x="114" y="520" name="top"/>
  <outline>
    <contour>
      <point x="9" y="-195" type="line"/>
      <point x="96" y="-195"/>
      <point x="153" y="-136"/>
      <point x="153" y="-48" type="curve" smooth="yes"/>
      <point x="153" y="520" type="line"/>
      <point x="103" y="520" type="line"/>
      <point x="103" y="-28" type="line" smooth="yes"/>
      <point x="103" y="-111"/>
      <point x="73" y="-152"/>
      <point x="-12" y="-152" type="curve"/>
    </contour>
  </outline>
</glyph>
<glyph name="nhookleft" format="2">
  <advance width="562"/>
  <unicode hex="0272"/>
  <outline>
    <contour>
      <point x="-9" y="-195" type="line"/>
      <point x="80" y="-195"/>
      <point x="127" y="-137"/>
      <point x="127" y="-52" type="curve" smooth="yes"/>
      <point x="127" y="318" type="line" smooth="yes"/>
      <point x="127" y="405"/>
      <point x="201" y="483"/>
      <point x="304" y="483" type="curve" smooth="yes"/>
      <point x="393" y="483"/>
      <point x="440" y="429"/>
      <point x="440" y="313" type="curve" smooth="yes"/>
      <point x="440" y="0" type="line"/>
      <point x="490" y="0" type="line"/>
      <point x="490" y="315" type="line" smooth="yes"/>
      <point x="490" y="463"/>
      <point x="430" y="531"/>
      <point x="319" y="531" type="curve" smooth="yes"/>
      <point x="225" y="531"/>
      <point x="137" y="469"/>
      <point x="121" y="400" type="curve"/>
      <point x="131" y="379" type="line"/>
      <point x="125" y="520" type="line"/>
      <point x="77" y="520" type="line"/>
      <point x="77" y="0" type="line" smooth="yes"/>
      <point x="77" y="-112"/>
      <point x="62" y="-152"/>
      <point x="-30" y="-152" type="curve"/>
    </contour>
  </outline>
</glyph>
<glyph name="ringhalfright" format="2">
  <advance width="215"/>
  <unicode hex="02BE"/>
  <outline>
    <contour>
      <point x="55" y="539" type="line"/>
      <point x="111" y="539"/>
      <point x="160" y="585.667"/>
      <point x="160" y="639" type="curve" smooth="yes"/>
      <point x="160" y="693.667"/>
      <point x="111" y="740"/>
      <point x="55" y="740" type="curve"/>
      <point x="55" y="701" type="line"/>
      <point x="91" y="701"/>
      <point x="120" y="676.333"/>
      <point x="120" y="639" type="curve" smooth="yes"/>
      <point x="120" y="605.667"/>
      <point x="91" y="578"/>
      <point x="55" y="578" type="curve"/>
    </contour>
  </outline>
</glyph>
<glyph name="verticallinelowmod" format="2">
  <advance width="230"/>
  <unicode hex="02CC"/>
  <outline>
    <contour>
      <point x="90" y="-147" type="line"/>
      <point x="140" y="-147" type="line"/>
      <point x="140" y="197" type="line"/>
      <point x="90" y="197" type="line"/>
    </contour>
  </outline>
</glyph>
<glyph name="acutecomb" format="2">
  <unicode hex="0301"/>
  <anchor x="241" y="525" name="_top"/>
  <anchor x="250" y="700" name="top"/>
  <outline>
    <contour>
      <point x="184" y="598" type="line"/>
      <point x="338" y="699" type="line"/>
      <point x="305" y="744" type="line"/>
      <point x="163" y="629" type="line"/>
    </contour>
  </outline>
</glyph>
<glyph name="circumflexcomb" format="2">
  <unicode hex="0302"/>
  <anchor x="250" y="525" name="_top"/>
  <anchor x="250" y="700" name="top"/>
  <outline>
    <contour>
      <point x="138" y="608" type="line"/>
      <point x="265" y="705" type="line"/>
      <point x="235" y="705" type="line"/>
      <point x="362" y="608" type="line"/>
      <point x="390" y="633" type="line"/>
      <point x="281" y="734" type="line"/>
      <point x="219" y="734" type="line"/>
      <point x="110" y="633" type="line"/>
    </contour>
  </outline>
</glyph>
<glyph name="brevecomb" format="2">
  <unicode hex="0306"/>
  <anchor x="250" y="525" name="_top"/>
  <anchor x="250" y="700" name="top"/>
  <outline>
    <contour>
      <point x="250" y="601" type="curve" smooth="yes"/>
      <point x="322" y="601"/>
      <point x="376" y="652"/>
      <point x="392" y="733" type="curve"/>
      <point x="349" y="738" type="line"/>
      <point x="336" y="678"/>
      <point x="295" y="642"/>
      <point x="250" y="642" type="curve" smooth="yes"/>
      <point x="205" y="642"/>
      <point x="164" y="678"/>
      <point x="151" y="738" type="curve"/>
      <point x="108" y="733" type="line"/>
      <point x="124" y="652"/>
      <point x="178" y="601"/>
    </contour>
  </outline>
</glyph>
<glyph name="dotaccentcomb" format="2">
  <unicode hex="0307"/>
  <anchor x="250" y="525" name="_top"/>
  <anchor x="250" y="690" name="top"/>
  <outline>
    <contour>
      <point x="250" y="615" type="curve" smooth="yes"/>
      <point x="279" y="615"/>
      <point x="296" y="633"/>
      <point x="296" y="660" type="curve" smooth="yes"/>
      <point x="296" y="688"/>
      <point x="279" y="705"/>
      <point x="250" y="705" type="curve" smooth="yes"/>
      <point x="220" y="705"/>
      <point x="204" y="687"/>
      <point x="204" y="660" type="curve" smooth="yes"/>
      <point x="204" y="632"/>
      <point x="220" y="615"/>
    </contour>
  </outline>
</glyph>
<glyph name="dieresiscomb" format="2">
  <unicode hex="0308"/>
  <anchor x="251" y="525" name="_top"/>
  <anchor x="250" y="690" name="top"/>
  <outline>
    <contour>
      <point x="155" y="614" type="curve" smooth="yes"/>
      <point x="184" y="614"/>
      <point x="201" y="632"/>
      <point x="201" y="659" type="curve" smooth="yes"/>
      <point x="201" y="687"/>
      <point x="184" y="704"/>
      <point x="155" y="704" type="curve" smooth="yes"/>
      <point x="125" y="704"/>
      <point x="109" y="686"/>
      <point x="109" y="659" type="curve" smooth="yes"/>
      <point x="109" y="631"/>
      <point x="125" y="614"/>
    </contour>
    <contour>
      <point x="346" y="615" type="curve" smooth="yes"/>
      <point x="375" y="615"/>
      <point x="392" y="633"/>
      <point x="392" y="660" type="curve" smooth="yes"/>
      <point x="392" y="688"/>
      <point x="375" y="705"/>
      <point x="346" y="705" type="curve" smooth="yes"/>
      <point x="316" y="705"/>
      <point x="300" y="687"/>
      <point x="300" y="660" type="curve" smooth="yes"/>
      <point x="300" y="632"/>
      <point x="316" y="615"/>
    </contour>
  </outline>
</glyph>
<glyph name="hookabovecomb" format="2">
  <unicode hex="0309"/>
  <anchor x="250" y="525" name="_top"/>
  <anchor x="250" y="700" name="top"/>
  <outline>
    <contour>
      <point x="240" y="605" type="curve"/>
      <point x="277" y="614" type="line"/>
      <point x="276" y="619"/>
      <point x="276" y="621"/>
      <point x="276" y="623" type="curve" smooth="yes"/>
      <point x="276" y="637"/>
      <point x="288" y="644"/>
      <point x="302" y="653" type="curve" smooth="yes"/>
      <point x="320" y="665"/>
      <point x="341" y="678"/>
      <point x="341" y="707" type="curve" smooth="yes"/>
      <point x="341" y="739"/>
      <point x="311" y="770"/>
      <point x="252" y="770" type="curve" smooth="yes"/>
      <point x="224" y="770"/>
      <point x="188" y="762"/>
      <point x="159" y="749" type="curve"/>
      <point x="172" y="712" type="line"/>
      <point x="199" y="723"/>
      <point x="224" y="728"/>
      <point x="244" y="728" type="curve" smooth="yes"/>
      <point x="270" y="728"/>
      <point x="293" y="720"/>
      <point x="293" y="703" type="curve" smooth="yes"/>
      <point x="293" y="691"/>
      <point x="278" y="681"/>
      <point x="257" y="667" type="curve" smooth="yes"/>
      <point x="237" y="653"/>
      <point x="233" y="640"/>
      <point x="233" y="631" type="curve" smooth="yes"/>
      <point x="233" y="623"/>
      <point x="236" y="612"/>
    </contour>
  </outline>
</glyph>
<glyph name="ringcomb" format="2">
  <unicode hex="030A"/>
  <anchor x="251" y="525" name="_top"/>
  <anchor x="250" y="690" name="top"/>
  <outline>
    <contour>
      <point x="250" y="560" type="curve" smooth="yes"/>
      <point x="306" y="560"/>
      <point x="355" y="607"/>
      <point x="355" y="660" type="curve" smooth="yes"/>
      <point x="355" y="715"/>
      <point x="306" y="761"/>
      <point x="250" y="761" type="curve" smooth="yes"/>
      <point x="194" y="761"/>
      <point x="146" y="715"/>
      <point x="146" y="660" type="curve" smooth="yes"/>
      <point x="146" y="607"/>
      <point x="195" y="560"/>
    </contour>
    <contour>
      <point x="250" y="599" type="curve" smooth="yes"/>
      <point x="215" y="599"/>
      <point x="186" y="627"/>
      <point x="186" y="660" type="curve" smooth="yes"/>
      <point x="186" y="696"/>
      <point x="212" y="722"/>
      <point x="250" y="722" type="curve" smooth="yes"/>
      <point x="286" y="722"/>
      <point x="315" y="697"/>
      <point x="315" y="660" type="curve" smooth="yes"/>
      <point x="315" y="627"/>
      <point x="286" y="599"/>
    </contour>
  </outline>
</glyph>
<glyph name="hungarumlautcomb" format="2">
  <unicode hex="030B"/>
  <anchor x="250" y="525" name="_top"/>
  <anchor x="250" y="700" name="top"/>
  <outline>
    <contour>
      <point x="259" y="598" type="line"/>
      <point x="413" y="699" type="line"/>
      <point x="380" y="744" type="line"/>
      <point x="238" y="629" type="line"/>
    </contour>
    <contour>
      <point x="109" y="598" type="line"/>
      <point x="263" y="699" type="line"/>
      <point x="230" y="744" type="line"/>
      <point x="88" y="629" type="line"/>
    </contour>
  </outline>
</glyph>
<glyph name="caroncomb" format="2">
  <unicode hex="030C"/>
  <anchor x="250" y="525" name="_top"/>
  <anchor x="250" y="690" name="top"/>
  <outline>
    <contour>
      <point x="219" y="596" type="line"/>
      <point x="281" y="596" type="line"/>
      <point x="390" y="697" type="line"/>
      <point x="362" y="722" type="line"/>
      <point x="235" y="625" type="line"/>
      <point x="265" y="625" type="line"/>
      <point x="138" y="722" type="line"/>
      <point x="110" y="697" type="line"/>
    </contour>
  </outline>
</glyph>
<glyph name="horncomb" format="2">
  <unicode hex="031B"/>
  <anchor x="177" y="520" name="_topright"/>
  <anchor x="344" y="624" name="topright"/>
  <outline>
    <contour>
      <point x="177" y="483" type="line"/>
      <point x="272" y="483"/>
      <point x="324" y="537"/>
      <point x="324" y="624" type="curve"/>
      <point x="276" y="624" type="line"/>
      <point x="276" y="555"/>
      <point x="245" y="520"/>
      <point x="177" y="520" type="curve"/>
    </contour>
  </outline>
</glyph>
<glyph name="dieresisbelowcomb" format="2">
  <unicode hex="0324"/>
  <anchor x="297" y="0" name="_bottom"/>
  <anchor x="297" y="-167" name="bottom"/>
  <outline>
    <contour>
      <point x="201" y="-167" type="curve" smooth="yes"/>
      <point x="230" y="-167"/>
      <point x="247" y="-149"/>
      <point x="247" y="-122" type="curve" smooth="yes"/>
      <point x="247" y="-94"/>
      <point x="230" y="-77"/>
      <point x="201" y="-77" type="curve" smooth="yes"/>
      <point x="171" y="-77"/>
      <point x="155" y="-95"/>
      <point x="155" y="-122" type="curve" smooth="yes"/>
      <point x="155" y="-150"/>
      <point x="171" y="-167"/>
    </contour>
    <contour>
      <point x="392" y="-166" type="curve" smooth="yes"/>
      <point x="421" y="-166"/>
      <point x="438" y="-148"/>
      <point x="438" y="-121" type="curve" smooth="yes"/>
      <point x="438" y="-93"/>
      <point x="421" y="-76"/>
      <point x="392" y="-76" type="curve" smooth="yes"/>
      <point x="362" y="-76"/>
      <point x="346" y="-94"/>
      <point x="346" y="-121" type="curve" smooth="yes"/>
      <point x="346" y="-149"/>
      <point x="362" y="-166"/>
    </contour>
  </outline>
</glyph>
<glyph name="cedillacomb" format="2">
  <unicode hex="0327"/>
  <anchor x="249" y="0" name="_bottom"/>
  <anchor x="250" y="-230" name="bottom"/>
  <outline>
    <contour>
      <point x="173" y="-230" type="line"/>
      <point x="247" y="-230"/>
      <point x="333" y="-207"/>
      <point x="333" y="-135" type="curve" smooth="yes"/>
      <point x="333" y="-97"/>
      <point x="302" y="-71"/>
      <point x="240" y="-60" type="curve"/>
      <point x="283" y="6" type="line"/>
      <point x="239" y="6" type="line"/>
      <point x="179" y="-86" type="line"/>
      <point x="192" y="-96" type="line"/>
      <point x="230" y="-96"/>
      <point x="285" y="-105"/>
      <point x="285" y="-140" type="curve" smooth="yes"/>
      <point x="285" y="-177"/>
      <point x="226" y="-194"/>
      <point x="166" y="-197" type="curve"/>
    </contour>
  </outline>
</glyph>
<glyph name="brevebelowcomb" format="2">
  <unicode hex="032E"/>
  <anchor x="250" y="0" name="_bottom"/>
  <anchor x="250" y="-200" name="bottom"/>
  <outline>
    <contour>
      <point x="250" y="-200" type="curve" smooth="yes"/>
      <point x="322" y="-200"/>
      <point x="376" y="-149"/>
      <point x="392" y="-68" type="curve"/>
      <point x="349" y="-63" type="line"/>
      <point x="336" y="-123"/>
      <point x="295" y="-159"/>
      <point x="250" y="-159" type="curve" smooth="yes"/>
      <point x="205" y="-159"/>
      <point x="164" y="-123"/>
      <point x="151" y="-63" type="curve"/>
      <point x="108" y="-68" type="line"/>
      <point x="124" y="-149"/>
      <point x="178" y="-200"/>
    </contour>
  </outline>
</glyph>
<glyph name="emdash" format="2">
  <advance width="868"/>
  <unicode hex="2014"/>
  <outline>
    <contour>
      <point x="53" y="267" type="line"/>
      <point x="815" y="267" type="line"/>
      <point x="815" y="317" type="line"/>
      <point x="53" y="317" type="line"/>
    </contour>
  </outline>
</glyph>
<glyph name="quoteleft" format="2">
  <advance width="238"/>
  <unicode hex="2018"/>
  <outline>
    <contour>
      <point x="129" y="481" type="curve" smooth="yes"/>
      <point x="154.333" y="481"/>
      <point x="170" y="497"/>
      <point x="170" y="521" type="curve" smooth="yes"/>
      <point x="170" y="535.667"/>
      <point x="160" y="549.667"/>
      <point x="148" y="559" type="curve" smooth="yes"/>
      <point x="125.333" y="577.667"/>
      <point x="125" y="589"/>
      <point x="125" y="605" type="curve" smooth="yes"/>
      <point x="125" y="633"/>
      <point x="145.667" y="658.333"/>
      <point x="183" y="681" type="curve"/>
      <point x="165" y="707" type="line"/>
      <point x="94.333" y="665.667"/>
      <point x="65" y="624.667"/>
      <point x="65" y="562" type="curve" smooth="yes"/>
      <point x="65" y="511.333"/>
      <point x="87.667" y="481"/>
    </contour>
  </outline>
</glyph>
<glyph name="bullet" format="2">
  <advance width="347"/>
  <unicode hex="2022"/>
  <outline>
    <contour>
      <point x="172" y="244" type="curve" smooth="yes"/>
      <point x="230.667" y="244"/>
      <point x="277" y="290"/>
      <point x="277" y="346" type="curve" smooth="yes"/>
      <point x="277" y="403.333"/>
      <point x="230.667" y="450"/>
      <point x="172" y="450" type="curve" smooth="yes"/>
      <point x="116" y="450"/>
      <point x="70" y="403.333"/>
      <point x="70" y="346" type="curve" smooth="yes"/>
      <point x="70" y="290"/>
      <point x="117.333" y="244"/>
    </contour>
  </outline>
</glyph>
<glyph name="guilsinglright" format="2">
  <advance width="275"/>
  <unicode hex="203A"/>
  <outline>
    <contour>
      <point x="74" y="53" type="line"/>
      <point x="234" y="260" type="line"/>
      <point x="234" y="262" type="line"/>
      <point x="74" y="469" type="line"/>
      <point x="35" y="443" type="line"/>
      <point x="176" y="253" type="line"/>
      <point x="176" y="269" type="line"/>
      <point x="34" y="78" type="line"/>
    </contour>
  </outline>
</glyph>
<glyph name="naira" format="2">
  <advance width="795"/>
  <unicode hex="20A6"/>
  <anchor x="391" y="0" name="bottom"/>
  <anchor x="391" y="700" name="top"/>
  <outline>
    <contour>
      <point x="10" y="320" type="line"/>
      <point x="122" y="320" type="line"/>
      <point x="148" y="322" type="line"/>
      <point x="633" y="322" type="line"/>
      <point x="657" y="320" type="line"/>
      <point x="785" y="320" type="line"/>
      <point x="785" y="368" type="line"/>
      <point x="662" y="368" type="line"/>
      <point x="633" y="366" type="line"/>
      <point x="148" y="366" type="line"/>
      <point x="124" y="368" type="line"/>
      <point x="10" y="368" type="line"/>
    </contour>
    <component base="N"/>
  </outline>
</glyph>
<glyph name="won" format="2">
  <advance width="917"/>
  <unicode hex="20A9"/>
  <anchor x="459" y="0" name="bottom"/>
  <anchor x="459" y="700" name="top"/>
  <outline>
    <contour>
      <point x="31" y="328" type="line"/>
      <point x="144" y="328" type="line"/>
      <point x="170" y="330" type="line"/>
      <point x="753" y="330" type="line"/>
      <point x="777" y="328" type="line"/>
      <point x="892" y="328" type="line"/>
      <point x="892" y="376" type="line"/>
      <point x="782" y="376" type="line"/>
      <point x="753" y="374" type="line"/>
      <point x="161" y="374" type="line"/>
      <point x="137" y="376" type="line"/>
      <point x="31" y="376" type="line"/>
    </contour>
    <component base="W"/>
  </outline>
</glyph>
<glyph name="dong" format="2">
  <advance width="491"/>
  <unicode hex="20AB"/>
  <outline>
    <contour>
      <point x="205" y="146" type="curve" smooth="yes"/>
      <point x="289" y="146"/>
      <point x="363" y="210"/>
      <point x="363" y="262" type="curve"/>
      <point x="343" y="266" type="line"/>
      <point x="343" y="156" type="line"/>
      <point x="392" y="156" type="line"/>
      <point x="392" y="700" type="line"/>
      <point x="343" y="700" type="line"/>
      <point x="343" y="404" type="line"/>
      <point x="372" y="377" type="line"/>
      <point x="357.356" y="451.553"/>
      <point x="291.763" y="497"/>
      <point x="210" y="497" type="curve" smooth="yes"/>
      <point x="116.408" y="497"/>
      <point x="40" y="419.667"/>
      <point x="40" y="321" type="curve" smooth="yes"/>
      <point x="40" y="218.333"/>
      <point x="117" y="146"/>
    </contour>
    <contour>
      <point x="41" y="0" type="line"/>
      <point x="430" y="0" type="line"/>
      <point x="430" y="48" type="line"/>
      <point x="41" y="48" type="line"/>
    </contour>
    <contour>
      <point x="217" y="192" type="curve" smooth="yes"/>
      <point x="141.589" y="192"/>
      <point x="89" y="248.072"/>
      <point x="89" y="321" type="curve" smooth="yes"/>
      <point x="89" y="395.497"/>
      <point x="142.157" y="449"/>
      <point x="218" y="449" type="curve" smooth="yes"/>
      <point x="291.517" y="449"/>
      <point x="346" y="391.667"/>
      <point x="346" y="321" type="curve" smooth="yes"/>
      <point x="346" y="251.929"/>
      <point x="288.219" y="192"/>
    </contour>
    <contour>
      <point x="203" y="568" type="line"/>
      <point x="466" y="568" type="line"/>
      <point x="466" y="614" type="line"/>
      <point x="203" y="614" type="line"/>
    </contour>
  </outline>
</glyph>
<glyph name="euro" format="2">
  <advance width="646"/>
  <unicode hex="20AC"/>
  <outline>
    <contour>
      <point x="423" y="-10" type="curve" smooth="yes"/>
      <point x="483.433" y="-10"/>
      <point x="543.819" y="6.152"/>
      <point x="594" y="41" type="curve"/>
      <point x="569" y="83" type="line"/>
      <point x="529" y="57.667"/>
      <point x="479.525" y="40"/>
      <point x="428" y="40" type="curve" smooth="yes"/>
      <point x="262.171" y="40"/>
      <point x="144" y="168.333"/>
      <point x="144" y="347" type="curve" smooth="yes"/>
      <point x="144" y="525.667"/>
      <point x="262.587" y="655"/>
      <point x="429" y="655" type="curve" smooth="yes"/>
      <point x="478.847" y="655"/>
      <point x="524.221" y="638.319"/>
      <point x="564" y="615" type="curve"/>
      <point x="590" y="659" type="line"/>
      <point x="542.284" y="690.356"/>
      <point x="488.171" y="705"/>
      <point x="429" y="705" type="curve" smooth="yes"/>
      <point x="231.916" y="705"/>
      <point x="91" y="555"/>
      <point x="91" y="347" type="curve" smooth="yes"/>
      <point x="91" y="139"/>
      <point x="229.908" y="-10"/>
    </contour>
    <contour>
      <point x="15" y="244" type="line"/>
      <point x="417" y="244" type="line"/>
      <point x="417" y="292" type="line"/>
      <point x="15" y="292" type="line"/>
    </contour>
    <contour>
      <point x="15" y="389" type="line"/>
      <point x="417" y="389" type="line"/>
      <point x="417" y="437" type="line"/>
      <point x="15" y="437" type="line"/>
    </contour>
  </outline>
</glyph>
<glyph name="peso" format="2">
  <advance width="779"/>
  <unicode hex="20B1"/>
  <anchor x="388" y="0" name="bottom"/>
  <anchor x="388" y="700" name="top"/>
  <outline>
    <contour>
      <point x="92" y="528" type="line"/>
      <point x="199" y="528" type="line"/>
      <point x="224" y="528" type="line"/>
      <point x="600" y="528" type="line"/>
      <point x="617" y="528" type="line"/>
      <point x="707" y="528" type="line"/>
      <point x="707" y="576" type="line"/>
      <point x="617" y="576" type="line"/>
      <point x="589" y="576" type="line"/>
      <point x="213" y="576" type="line"/>
      <point x="198" y="576" type="line"/>
      <point x="92" y="576" type="line"/>
    </contour>
    <contour>
      <point x="92" y="407" type="line"/>
      <point x="205" y="407" type="line"/>
      <point x="228" y="407" type="line"/>
      <point x="588" y="407" type="line"/>
      <point x="606" y="407" type="line"/>
      <point x="707" y="407" type="line"/>
      <point x="707" y="455" type="line"/>
      <point x="625" y="455" type="line"/>
      <point x="594" y="455" type="line"/>
      <point x="235" y="455" type="line"/>
      <point x="203" y="455" type="line"/>
      <point x="92" y="455" type="line"/>
    </contour>
    <component base="P" xOffset="82"/>
  </outline>
</glyph>
<glyph name="liraTurkish" format="2">
  <advance width="609"/>
  <unicode hex="20BA"/>
  <outline>
    <contour>
      <point x="208" y="-10" type="curve" smooth="yes"/>
      <point x="377.333" y="-10"/>
      <point x="537.812" y="88.72"/>
      <point x="550" y="193" type="curve"/>
      <point x="504" y="205" type="line"/>
      <point x="473.333" y="101"/>
      <point x="345.096" y="40"/>
      <point x="214" y="40" type="curve"/>
      <point x="232" y="11" type="line"/>
      <point x="232" y="700" type="line"/>
      <point x="182" y="700" type="line"/>
      <point x="182" y="0" type="line"/>
      <point x="190" y="-5.333"/>
      <point x="198.667" y="-10"/>
    </contour>
    <contour>
      <point x="80" y="188" type="line"/>
      <point x="425" y="380" type="line"/>
      <point x="398" y="421" type="line"/>
      <point x="58" y="230" type="line"/>
    </contour>
    <contour>
      <point x="57" y="350" type="line"/>
      <point x="402" y="542" type="line"/>
      <point x="375" y="583" type="line"/>
      <point x="35" y="392" type="line"/>
    </contour>
  </outline>
</glyph>
<glyph name="literSign" format="2">
  <advance width="539"/>
  <unicode hex="2113"/>
  <outline>
    <contour>
      <point x="299" y="-10" type="curve" smooth="yes"/>
      <point x="348.333" y="-10"/>
      <point x="400.228" y="8.913"/>
      <point x="442" y="47" type="curve"/>
      <point x="420" y="87" type="line"/>
      <point x="381.333" y="60.333"/>
      <point x="340.795" y="43"/>
      <point x="307" y="43" type="curve" smooth="yes"/>
      <point x="231.179" y="43"/>
      <point x="180" y="125.548"/>
      <point x="180" y="242" type="curve" smooth="yes"/>
      <point x="180" y="306.939"/>
      <point x="186.221" y="416.047"/>
      <point x="215" y="505" type="curve" smooth="yes"/>
      <point x="255.244" y="628.415"/>
      <point x="322" y="698"/>
      <point x="387" y="698" type="curve" smooth="yes"/>
      <point x="434" y="698"/>
      <point x="466" y="661.333"/>
      <point x="466" y="612" type="curve" smooth="yes"/>
      <point x="466" y="521.407"/>
      <point x="377.871" y="376.231"/>
      <point x="299" y="296" type="curve" smooth="yes"/>
      <point x="223.743" y="219.423"/>
      <point x="137.572" y="160.979"/>
      <point x="33" y="110" type="curve"/>
      <point x="57" y="67" type="line"/>
      <point x="177" y="123"/>
      <point x="280.333" y="195.667"/>
      <point x="359" y="281" type="curve" smooth="yes"/>
      <point x="459" y="387.667"/>
      <point x="519" y="512"/>
      <point x="519" y="608" type="curve" smooth="yes"/>
      <point x="519" y="690.667"/>
      <point x="468" y="746.667"/>
      <point x="388" y="748" type="curve" smooth="yes"/>
      <point x="300" y="746.667"/>
      <point x="225.667" y="675.667"/>
      <point x="175" y="549" type="curve" smooth="yes"/>
      <point x="139.781" y="460.3"/>
      <point x="127" y="343"/>
      <point x="127" y="247" type="curve" smooth="yes"/>
      <point x="127" y="97.732"/>
      <point x="197.667" y="-10"/>
    </contour>
  </outline>
</glyph>
<glyph name="increment" format="2">
  <advance width="707"/>
  <unicode hex="2206"/>
  <outline>
    <contour>
      <point x="10" y="0" type="line"/>
      <point x="698" y="0" type="line"/>
      <point x="352" y="717" type="line"/>
    </contour>
    <contour>
      <point x="80" y="27" type="line"/>
      <point x="364" y="620" type="line"/>
      <point x="342" y="620" type="line"/>
      <point x="627" y="27" type="line"/>
      <point x="635" y="50" type="line"/>
      <point x="69" y="50" type="line"/>
    </contour>
  </outline>
</glyph>
<glyph name="infinity" format="2">
  <advance width="867"/>
  <unicode hex="221E"/>
  <outline>
    <contour>
      <point x="654" y="47" type="curve" smooth="yes"/>
      <point x="754" y="47"/>
      <point x="822" y="122"/>
      <point x="822" y="242" type="curve" smooth="yes"/>
      <point x="822" y="360.667"/>
      <point x="752" y="437"/>
      <point x="652" y="437" type="curve" smooth="yes"/>
      <point x="590.667" y="437"/>
      <point x="546.396" y="419.571"/>
      <point x="488" y="348" type="curve" smooth="yes"/>
      <point x="324" y="147" type="line"/>
      <point x="285.924" y="107.564"/>
      <point x="259.469" y="93"/>
      <point x="222" y="93" type="curve" smooth="yes"/>
      <point x="144.667" y="93"/>
      <point x="93" y="150"/>
      <point x="93" y="242" type="curve" smooth="yes"/>
      <point x="93" y="334"/>
      <point x="146.333" y="391"/>
      <point x="221" y="391" type="curve" smooth="yes"/>
      <point x="267.485" y="391"/>
      <point x="311.092" y="360.693"/>
      <point x="354" y="306" type="curve" smooth="yes"/>
      <point x="496" y="125" type="line"/>
      <point x="553.333" y="66.333"/>
      <point x="594" y="47"/>
    </contour>
    <contour>
      <point x="213" y="47" type="curve" smooth="yes"/>
      <point x="273" y="47"/>
      <point x="317.545" y="64.063"/>
      <point x="371" y="130" type="curve" smooth="yes"/>
      <point x="538" y="336" type="line"/>
      <point x="575.784" y="373.784"/>
      <point x="608.987" y="391"/>
      <point x="645" y="391" type="curve" smooth="yes"/>
      <point x="719.667" y="391"/>
      <point x="774" y="332.667"/>
      <point x="774" y="242" type="curve" smooth="yes"/>
      <point x="774" y="150"/>
      <point x="722.333" y="93"/>
      <point x="645" y="93" type="curve" smooth="yes"/>
      <point x="599.721" y="93"/>
      <point x="565" y="115.667"/>
      <point x="517" y="177" type="curve" smooth="yes"/>
      <point x="379" y="353" type="line"/>
      <point x="315" y="419.667"/>
      <point x="276.333" y="437"/>
      <point x="215" y="437" type="curve" smooth="yes"/>
      <point x="115" y="437"/>
      <point x="45" y="360.667"/>
      <point x="45" y="242" type="curve" smooth="yes"/>
      <point x="45" y="122"/>
      <point x="113" y="47"/>
    </contour>
  </outline>
</glyph>
<glyph name="integral" format="2">
  <advance width="553"/>
  <unicode hex="222B"/>
  <outline>
    <contour>
      <point x="111" y="-127" type="curve" smooth="yes"/>
      <point x="195.283" y="-127"/>
      <point x="243.987" y="-60.803"/>
      <point x="266" y="71" type="curve" smooth="yes"/>
      <point x="346" y="550" type="line" smooth="yes"/>
      <point x="362.019" y="646.112"/>
      <point x="393.96" y="694"/>
      <point x="445" y="694" type="curve" smooth="yes"/>
      <point x="473.828" y="694"/>
      <point x="513.275" y="685.484"/>
      <point x="544" y="665" type="curve"/>
      <point x="561" y="710" type="line"/>
      <point x="533" y="734"/>
      <point x="494.667" y="745"/>
      <point x="444" y="745" type="curve" smooth="yes"/>
      <point x="362.243" y="745"/>
      <point x="314.315" y="678.961"/>
      <point x="292" y="547" type="curve" smooth="yes"/>
      <point x="211" y="68" type="line" smooth="yes"/>
      <point x="196.317" y="-22.767"/>
      <point x="162.441" y="-76"/>
      <point x="113" y="-76" type="curve" smooth="yes"/>
      <point x="83.464" y="-76"/>
      <point x="67" y="-70.333"/>
      <point x="27" y="-37" type="curve"/>
      <point x="0" y="-81" type="line"/>
      <point x="40" y="-110.333"/>
      <point x="80.333" y="-127"/>
    </contour>
  </outline>
</glyph>
<glyph name="notequal" format="2">
  <advance width="566"/>
  <unicode hex="2260"/>
  <outline>
    <contour>
      <point x="117" y="43" type="line"/>
      <point x="173" y="43" type="line"/>
      <point x="435" y="525" type="line"/>
      <point x="379" y="525" type="line"/>
    </contour>
    <contour>
      <point x="60" y="175" type="line"/>
      <point x="506" y="175" type="line"/>
      <point x="506" y="223" type="line"/>
      <point x="60" y="223" type="line"/>
    </contour>
    <contour>
      <point x="60" y="345" type="line"/>
      <point x="506" y="345" type="line"/>
      <point x="506" y="393" type="line"/>
      <point x="60" y="393" type="line"/>
    </contour>
  </outline>
</glyph>
<glyph name="lozenge" format="2">
  <advance width="596"/>
  <unicode hex="25CA"/>
  <outline>
    <contour>
      <point x="299" y="-41" type="line"/>
      <point x="560" y="328" type="line"/>
      <point x="299" y="689" type="line"/>
      <point x="36" y="328" type="line"/>
    </contour>
    <contour>
      <point x="298.697" y="47.639" type="line"/>
      <point x="101.34" y="330.218" type="line"/>
      <point x="298.414" y="601.194" type="line"/>
      <point x="495.261" y="327.699" type="line"/>
    </contour>
  </outline>
</glyph>
<glyph name="acutecomb.case" format="2">
  <anchor x="230" y="700" name="_top"/>
  <anchor x="250" y="835" name="top"/>
  <outline>
    <contour>
      <point x="175" y="759" type="line"/>
      <point x="343" y="838" type="line"/>
      <point x="309" y="890" type="line"/>
      <point x="157" y="792" type="line"/>
    </contour>
  </outline>
</glyph>
<glyph name="acutecomb_dotaccentcomb" format="2">
  <anchor x="241" y="525" name="_top"/>
  <anchor x="241" y="691" name="top"/>
  <outline>
    <contour>
      <point x="278" y="612" type="line"/>
      <point x="370" y="727" type="line"/>
      <point x="325" y="758" type="line"/>
      <point x="247" y="632" type="line"/>
    </contour>
    <contour>
      <point x="167" y="615" type="curve" smooth="yes"/>
      <point x="196" y="615"/>
      <point x="213" y="633"/>
      <point x="213" y="660" type="curve" smooth="yes"/>
      <point x="213" y="688"/>
      <point x="196" y="705"/>
      <point x="167" y="705" type="curve" smooth="yes"/>
      <point x="137" y="705"/>
      <point x="121" y="687"/>
      <point x="121" y="660" type="curve" smooth="yes"/>
      <point x="121" y="632"/>
      <point x="137" y="615"/>
    </contour>
  </outline>
</glyph>
<glyph name="brevecomb.case" format="2">
  <anchor x="250" y="700" name="_top"/>
  <anchor x="250" y="835" name="top"/>
  <outline>
    <contour>
      <point x="250" y="761" type="curve" smooth="yes"/>
      <point x="322" y="761"/>
      <point x="376" y="808"/>
      <point x="392" y="883" type="curve"/>
      <point x="349" y="888" type="line"/>
      <point x="336" y="824"/>
      <point x="295" y="802"/>
      <point x="250" y="802" type="curve" smooth="yes"/>
      <point x="205" y="802"/>
      <point x="164" y="824"/>
      <point x="151" y="888" type="curve"/>
      <point x="108" y="883" type="line"/>
      <point x="124" y="808"/>
      <point x="178" y="761"/>
    </contour>
  </outline>
</glyph>
<glyph name="brevecomb_acutecomb" format="2">
  <anchor x="250" y="525" name="_top"/>
  <anchor x="250" y="790" name="top"/>
  <outline>
    <contour>
      <point x="250" y="601" type="curve" smooth="yes"/>
      <point x="322" y="601"/>
      <point x="376" y="644"/>
      <point x="392" y="713" type="curve"/>
      <point x="349" y="718" type="line"/>
      <point x="336" y="671"/>
      <point x="295" y="642"/>
      <point x="250" y="642" type="curve" smooth="yes"/>
      <point x="205" y="642"/>
      <point x="164" y="671"/>
      <point x="151" y="718" type="curve"/>
      <point x="108" y="713" type="line"/>
      <point x="124" y="644"/>
      <point x="178" y="601"/>
    </contour>
    <contour>
      <point x="251" y="746" type="line"/>
      <point x="343" y="861" type="line"/>
      <point x="288" y="896" type="line"/>
      <point x="220" y="766" type="line"/>
    </contour>
  </outline>
</glyph>
<glyph name="brevecomb_gravecomb.case" format="2">
  <anchor x="250" y="700" name="_top"/>
  <anchor x="250" y="835" name="top"/>
  <outline>
    <contour>
      <point x="250" y="761" type="curve" smooth="yes"/>
      <point x="322" y="761"/>
      <point x="376" y="804"/>
      <point x="392" y="873" type="curve"/>
      <point x="349" y="878" type="line"/>
      <point x="332" y="822"/>
      <point x="295" y="802"/>
      <point x="250" y="802" type="curve" smooth="yes"/>
      <point x="205" y="802"/>
      <point x="168" y="822"/>
      <point x="151" y="878" type="curve"/>
      <point x="108" y="873" type="line"/>
      <point x="124" y="804"/>
      <point x="178" y="761"/>
    </contour>
    <contour>
      <point x="248" y="891" type="line"/>
      <point x="279" y="911" type="line"/>
      <point x="202" y="1038" type="line"/>
      <point x="147" y="1001" type="line"/>
    </contour>
  </outline>
</glyph>
<glyph name="brevecomb_gravecomb" format="2">
  <anchor x="250" y="525" name="_top"/>
  <anchor x="250" y="780" name="top"/>
  <outline>
    <contour>
      <point x="250" y="591" type="curve" smooth="yes"/>
      <point x="322" y="591"/>
      <point x="376" y="642"/>
      <point x="392" y="723" type="curve"/>
      <point x="349" y="728" type="line"/>
      <point x="336" y="668"/>
      <point x="295" y="632"/>
      <point x="250" y="632" type="curve" smooth="yes"/>
      <point x="205" y="632"/>
      <point x="164" y="668"/>
      <point x="151" y="728" type="curve"/>
      <point x="108" y="723" type="line"/>
      <point x="124" y="642"/>
      <point x="178" y="591"/>
    </contour>
    <contour>
      <point x="256" y="716" type="line"/>
      <point x="287" y="736" type="line"/>
      <point x="210" y="863" type="line"/>
      <point x="164" y="831" type="line"/>
    </contour>
  </outline>
</glyph>
<glyph name="brevecomb_hookabovecomb.case" format="2">
  <anchor x="250" y="700" name="_top"/>
  <anchor x="250" y="835" name="top"/>
  <outline>
    <contour>
      <point x="250" y="761" type="curve" smooth="yes"/>
      <point x="322" y="761"/>
      <point x="376" y="804"/>
      <point x="392" y="873" type="curve"/>
      <point x="349" y="878" type="line"/>
      <point x="332" y="822"/>
      <point x="295" y="802"/>
      <point x="250" y="802" type="curve" smooth="yes"/>
      <point x="205" y="802"/>
      <point x="168" y="822"/>
      <point x="151" y="878" type="curve"/>
      <point x="108" y="873" type="line"/>
      <point x="124" y="804"/>
      <point x="178" y="761"/>
    </contour>
    <contour>
      <point x="232" y="890" type="curve"/>
      <point x="269" y="899" type="line"/>
      <point x="268" y="902"/>
      <point x="268" y="903"/>
      <point x="268" y="904" type="curve" smooth="yes"/>
      <point x="268" y="911"/>
      <point x="283" y="920"/>
      <point x="296" y="929" type="curve" smooth="yes"/>
      <point x="318" y="944"/>
      <point x="333" y="959"/>
      <point x="333" y="982" type="curve" smooth="yes"/>
      <point x="333" y="1012"/>
      <point x="305" y="1040"/>
      <point x="247" y="1040" type="curve" smooth="yes"/>
      <point x="219" y="1040"/>
      <point x="187" y="1032"/>
      <point x="161" y="1019" type="curve"/>
      <point x="174" y="982" type="line"/>
      <point x="197" y="993"/>
      <point x="219" y="998"/>
      <point x="242" y="998" type="curve" smooth="yes"/>
      <point x="265" y="998"/>
      <point x="285" y="991"/>
      <point x="285" y="977" type="curve" smooth="yes"/>
      <point x="285" y="967"/>
      <point x="276" y="958"/>
      <point x="258" y="946" type="curve" smooth="yes"/>
      <point x="234" y="930"/>
      <point x="225" y="922"/>
      <point x="225" y="911" type="curve" smooth="yes"/>
      <point x="225" y="904"/>
      <point x="228" y="897"/>
    </contour>
  </outline>
</glyph>
<glyph name="brevecomb_hookabovecomb" format="2">
  <anchor x="250" y="525" name="_top"/>
  <anchor x="250" y="780" name="top"/>
  <outline>
    <contour>
      <point x="250" y="591" type="curve" smooth="yes"/>
      <point x="322" y="591"/>
      <point x="376" y="642"/>
      <point x="392" y="723" type="curve"/>
      <point x="349" y="728" type="line"/>
      <point x="336" y="668"/>
      <point x="295" y="632"/>
      <point x="250" y="632" type="curve" smooth="yes"/>
      <point x="205" y="632"/>
      <point x="164" y="668"/>
      <point x="151" y="728" type="curve"/>
      <point x="108" y="723" type="line"/>
      <point x="124" y="642"/>
      <point x="178" y="591"/>
    </contour>
    <contour>
      <point x="232" y="715" type="curve"/>
      <point x="269" y="724" type="line"/>
      <point x="268" y="729"/>
      <point x="268" y="731"/>
      <point x="268" y="733" type="curve" smooth="yes"/>
      <point x="268" y="747"/>
      <point x="280" y="754"/>
      <point x="294" y="763" type="curve" smooth="yes"/>
      <point x="312" y="775"/>
      <point x="333" y="788"/>
      <point x="333" y="817" type="curve" smooth="yes"/>
      <point x="333" y="849"/>
      <point x="303" y="880"/>
      <point x="244" y="880" type="curve" smooth="yes"/>
      <point x="216" y="880"/>
      <point x="180" y="872"/>
      <point x="151" y="859" type="curve"/>
      <point x="164" y="822" type="line"/>
      <point x="191" y="833"/>
      <point x="216" y="838"/>
      <point x="236" y="838" type="curve" smooth="yes"/>
      <point x="262" y="838"/>
      <point x="285" y="830"/>
      <point x="285" y="813" type="curve" smooth="yes"/>
      <point x="285" y="801"/>
      <point x="270" y="791"/>
      <point x="249" y="777" type="curve" smooth="yes"/>
      <point x="229" y="763"/>
      <point x="225" y="750"/>
      <point x="225" y="741" type="curve" smooth="yes"/>
      <point x="225" y="733"/>
      <point x="228" y="722"/>
    </contour>
  </outline>
</glyph>
<glyph name="brevecomb_tildecomb.case" format="2">
  <anchor x="250" y="700" name="_top"/>
  <anchor x="250" y="835" name="top"/>
  <outline>
    <contour>
      <point x="250" y="761" type="curve" smooth="yes"/>
      <point x="322" y="761"/>
      <point x="376" y="804"/>
      <point x="392" y="873" type="curve"/>
      <point x="349" y="878" type="line"/>
      <point x="332" y="822"/>
      <point x="295" y="802"/>
      <point x="250" y="802" type="curve" smooth="yes"/>
      <point x="205" y="802"/>
      <point x="168" y="822"/>
      <point x="151" y="878" type="curve"/>
      <point x="108" y="873" type="line"/>
      <point x="124" y="804"/>
      <point x="178" y="761"/>
    </contour>
    <contour>
      <point x="320" y="910" type="curve" smooth="yes"/>
      <point x="362" y="910"/>
      <point x="396" y="937"/>
      <point x="396" y="992" type="curve"/>
      <point x="350" y="992" type="line"/>
      <point x="350" y="967"/>
      <point x="334" y="954"/>
      <point x="316" y="954" type="curve" smooth="yes"/>
      <point x="296" y="954"/>
      <point x="272" y="966"/>
      <point x="251" y="976" type="curve" smooth="yes"/>
      <point x="228" y="987"/>
      <point x="209" y="998"/>
      <point x="181" y="998" type="curve" smooth="yes"/>
      <point x="139" y="998"/>
      <point x="105" y="964"/>
      <point x="105" y="916" type="curve"/>
      <point x="151" y="916" type="line"/>
      <point x="151" y="944"/>
      <point x="167" y="954"/>
      <point x="182" y="954" type="curve" smooth="yes"/>
      <point x="202" y="954"/>
      <point x="223" y="943"/>
      <point x="245" y="933" type="curve" smooth="yes"/>
      <point x="267" y="923"/>
      <point x="291" y="910"/>
    </contour>
  </outline>
</glyph>
<glyph name="brevecomb_tildecomb" format="2">
  <anchor x="250" y="525" name="_top"/>
  <anchor x="250" y="790" name="top"/>
  <outline>
    <contour>
      <point x="249" y="601" type="curve" smooth="yes"/>
      <point x="321" y="601"/>
      <point x="375" y="644"/>
      <point x="391" y="713" type="curve"/>
      <point x="348" y="718" type="line"/>
      <point x="335" y="671"/>
      <point x="294" y="642"/>
      <point x="249" y="642" type="curve" smooth="yes"/>
      <point x="204" y="642"/>
      <point x="163" y="671"/>
      <point x="150" y="718" type="curve"/>
      <point x="107" y="713" type="line"/>
      <point x="123" y="644"/>
      <point x="177" y="601"/>
    </contour>
    <contour>
      <point x="317" y="802" type="curve" smooth="yes"/>
      <point x="360" y="802"/>
      <point x="391" y="836"/>
      <point x="397" y="878" type="curve"/>
      <point x="354" y="882" type="line"/>
      <point x="351" y="862"/>
      <point x="335" y="845"/>
      <point x="314" y="845" type="curve" smooth="yes"/>
      <point x="293" y="845"/>
      <point x="275" y="857"/>
      <point x="255" y="868" type="curve" smooth="yes"/>
      <point x="236" y="879"/>
      <point x="218" y="891"/>
      <point x="190" y="891" type="curve" smooth="yes"/>
      <point x="147" y="891"/>
      <point x="109" y="859"/>
      <point x="103" y="815" type="curve"/>
      <point x="144" y="811" type="line"/>
      <point x="149" y="835"/>
      <point x="168" y="848"/>
      <point x="190" y="848" type="curve" smooth="yes"/>
      <point x="213" y="848"/>
      <point x="228" y="837"/>
      <point x="245" y="828" type="curve" smooth="yes"/>
      <point x="267" y="816"/>
      <point x="290" y="802"/>
    </contour>
  </outline>
</glyph>
<glyph name="cedillacomb.case" format="2">
  <anchor x="126" y="0" name="_bottom"/>
  <anchor x="127" y="-230" name="bottom"/>
  <outline>
    <contour>
      <point x="50" y="-230" type="line"/>
      <point x="124" y="-230"/>
      <point x="210" y="-207"/>
      <point x="210" y="-135" type="curve" smooth="yes"/>
      <point x="210" y="-96.723"/>
      <point x="178.613" y="-70.787"/>
      <point x="117.282" y="-60.079" type="curve"/>
      <point x="160" y="6" type="line"/>
      <point x="116" y="6" type="line"/>
      <point x="56" y="-86" type="line"/>
      <point x="69" y="-96" type="line"/>
      <point x="107" y="-96"/>
      <point x="162" y="-105"/>
      <point x="162" y="-140" type="curve" smooth="yes"/>
      <point x="162" y="-177.333"/>
      <point x="103" y="-194.333"/>
      <point x="43" y="-197" type="curve"/>
    </contour>
  </outline>
</glyph>
<glyph name="circumflexcomb_acutecomb.case" format="2">
  <anchor x="227" y="700" name="_top"/>
  <anchor x="227" y="835" name="top"/>
  <outline>
    <contour>
      <point x="105" y="765" type="line"/>
      <point x="242" y="850" type="line"/>
      <point x="212" y="850" type="line"/>
      <point x="349" y="765" type="line"/>
      <point x="377" y="790" type="line"/>
      <point x="258" y="881" type="line"/>
      <point x="196" y="881" type="line"/>
      <point x="77" y="790" type="line"/>
    </contour>
    <contour>
      <point x="345" y="861" type="line"/>
      <point x="437" y="976" type="line"/>
      <point x="391" y="1008" type="line"/>
      <point x="314" y="881" type="line"/>
    </contour>
  </outline>
</glyph>
<glyph name="circumflexcomb_acutecomb" format="2">
  <anchor x="219" y="520" name="_top"/>
  <anchor x="219" y="780" name="top"/>
  <outline>
    <contour>
      <point x="108" y="598" type="line"/>
      <point x="235" y="695" type="line"/>
      <point x="205" y="695" type="line"/>
      <point x="332" y="598" type="line"/>
      <point x="360" y="623" type="line"/>
      <point x="251" y="724" type="line"/>
      <point x="189" y="724" type="line"/>
      <point x="80" y="623" type="line"/>
    </contour>
    <contour>
      <point x="328" y="716" type="line"/>
      <point x="420" y="831" type="line"/>
      <point x="375" y="862" type="line"/>
      <point x="297" y="736" type="line"/>
    </contour>
  </outline>
</glyph>
<glyph name="circumflexcomb_gravecomb" format="2">
  <anchor x="240" y="525" name="_top"/>
  <anchor x="240" y="790" name="top"/>
  <outline>
    <contour>
      <point x="128" y="608" type="line"/>
      <point x="255" y="705" type="line"/>
      <point x="225" y="705" type="line"/>
      <point x="352" y="608" type="line"/>
      <point x="380" y="633" type="line"/>
      <point x="271" y="734" type="line"/>
      <point x="209" y="734" type="line"/>
      <point x="100" y="633" type="line"/>
    </contour>
    <contour>
      <point x="369" y="726" type="line"/>
      <point x="400" y="746" type="line"/>
      <point x="333" y="877" type="line"/>
      <point x="277" y="841" type="line"/>
    </contour>
  </outline>
</glyph>
<glyph name="circumflexcomb_hookabovecomb.case" format="2">
  <anchor x="220" y="700" name="_top"/>
  <anchor x="220" y="835" name="top"/>
  <outline>
    <contour>
      <point x="98" y="765" type="line"/>
      <point x="235" y="850" type="line"/>
      <point x="205" y="850" type="line"/>
      <point x="342" y="765" type="line"/>
      <point x="370" y="790" type="line"/>
      <point x="251" y="881" type="line"/>
      <point x="189" y="881" type="line"/>
      <point x="70" y="790" type="line"/>
    </contour>
    <contour>
      <point x="329" y="853" type="curve"/>
      <point x="366" y="862" type="line"/>
      <point x="365" y="865"/>
      <point x="365" y="866"/>
      <point x="365" y="867" type="curve" smooth="yes"/>
      <point x="365" y="874"/>
      <point x="380" y="883"/>
      <point x="393" y="892" type="curve" smooth="yes"/>
      <point x="415" y="907"/>
      <point x="430" y="922"/>
      <point x="430" y="945" type="curve" smooth="yes"/>
      <point x="430" y="975"/>
      <point x="402" y="1003"/>
      <point x="344" y="1003" type="curve" smooth="yes"/>
      <point x="316" y="1003"/>
      <point x="284" y="995"/>
      <point x="258" y="982" type="curve"/>
      <point x="271" y="945" type="line"/>
      <point x="294" y="956"/>
      <point x="316" y="961"/>
      <point x="339" y="961" type="curve" smooth="yes"/>
      <point x="362" y="961"/>
      <point x="382" y="953"/>
      <point x="382" y="938" type="curve" smooth="yes"/>
      <point x="382" y="928"/>
      <point x="373" y="919"/>
      <point x="355" y="907" type="curve" smooth="yes"/>
      <point x="331" y="891"/>
      <point x="322" y="884"/>
      <point x="322" y="874" type="curve" smooth="yes"/>
      <point x="322" y="867"/>
      <point x="325" y="860"/>
    </contour>
  </outline>
</glyph>
<glyph name="circumflexcomb_hookabovecomb" format="2">
  <anchor x="221" y="525" name="_top"/>
  <anchor x="220" y="790" name="top"/>
  <outline>
    <contour>
      <point x="108" y="608" type="line"/>
      <point x="235" y="705" type="line"/>
      <point x="205" y="705" type="line"/>
      <point x="332" y="608" type="line"/>
      <point x="360" y="633" type="line"/>
      <point x="251" y="734" type="line"/>
      <point x="189" y="734" type="line"/>
      <point x="80" y="633" type="line"/>
    </contour>
    <contour>
      <point x="320" y="725" type="curve"/>
      <point x="357" y="734" type="line"/>
      <point x="356" y="739"/>
      <point x="356" y="741"/>
      <point x="356" y="743" type="curve" smooth="yes"/>
      <point x="356" y="757"/>
      <point x="368" y="764"/>
      <point x="382" y="773" type="curve" smooth="yes"/>
      <point x="400" y="785"/>
      <point x="421" y="798"/>
      <point x="421" y="827" type="curve" smooth="yes"/>
      <point x="421" y="859"/>
      <point x="391" y="890"/>
      <point x="332" y="890" type="curve" smooth="yes"/>
      <point x="304" y="890"/>
      <point x="268" y="882"/>
      <point x="239" y="869" type="curve"/>
      <point x="252" y="832" type="line"/>
      <point x="279" y="843"/>
      <point x="304" y="848"/>
      <point x="324" y="848" type="curve" smooth="yes"/>
      <point x="350" y="848"/>
      <point x="373" y="840"/>
      <point x="373" y="823" type="curve" smooth="yes"/>
      <point x="373" y="811"/>
      <point x="358" y="801"/>
      <point x="337" y="787" type="curve" smooth="yes"/>
      <point x="317" y="773"/>
      <point x="313" y="760"/>
      <point x="313" y="751" type="curve" smooth="yes"/>
      <point x="313" y="743"/>
      <point x="316" y="732"/>
    </contour>
  </outline>
</glyph>
<glyph name="circumflexcomb_tildecomb.case" format="2">
  <anchor x="250" y="700" name="_top"/>
  <anchor x="250" y="835" name="top"/>
  <outline>
    <contour>
      <point x="128" y="765" type="line"/>
      <point x="265" y="850" type="line"/>
      <point x="235" y="850" type="line"/>
      <point x="372" y="765" type="line"/>
      <point x="400" y="790" type="line"/>
      <point x="281" y="881" type="line"/>
      <point x="219" y="881" type="line"/>
      <point x="100" y="790" type="line"/>
    </contour>
    <contour>
      <point x="320" y="950" type="curve" smooth="yes"/>
      <point x="362" y="950"/>
      <point x="396" y="977"/>
      <point x="396" y="1032" type="curve"/>
      <point x="350" y="1032" type="line"/>
      <point x="350" y="1007"/>
      <point x="334" y="994"/>
      <point x="316" y="994" type="curve" smooth="yes"/>
      <point x="296" y="994"/>
      <point x="272" y="1006"/>
      <point x="251" y="1016" type="curve" smooth="yes"/>
      <point x="228" y="1027"/>
      <point x="209" y="1038"/>
      <point x="181" y="1038" type="curve" smooth="yes"/>
      <point x="139" y="1038"/>
      <point x="105" y="1004"/>
      <point x="105" y="956" type="curve"/>
      <point x="151" y="956" type="line"/>
      <point x="151" y="984"/>
      <point x="167" y="994"/>
      <point x="182" y="994" type="curve" smooth="yes"/>
      <point x="202" y="994"/>
      <point x="223" y="983"/>
      <point x="245" y="973" type="curve" smooth="yes"/>
      <point x="267" y="963"/>
      <point x="291" y="950"/>
    </contour>
  </outline>
</glyph>
<glyph name="circumflexcomb_tildecomb" format="2">
  <anchor x="250" y="525" name="_top"/>
  <anchor x="250" y="790" name="top"/>
  <outline>
    <contour>
      <point x="137" y="608" type="line"/>
      <point x="264" y="705" type="line"/>
      <point x="234" y="705" type="line"/>
      <point x="361" y="608" type="line"/>
      <point x="389" y="633" type="line"/>
      <point x="280" y="734" type="line"/>
      <point x="218" y="734" type="line"/>
      <point x="109" y="633" type="line"/>
    </contour>
    <contour>
      <point x="317" y="802" type="curve" smooth="yes"/>
      <point x="360" y="802"/>
      <point x="391" y="836"/>
      <point x="397" y="878" type="curve"/>
      <point x="354" y="882" type="line"/>
      <point x="351" y="862"/>
      <point x="335" y="845"/>
      <point x="314" y="845" type="curve" smooth="yes"/>
      <point x="293" y="845"/>
      <point x="275" y="857"/>
      <point x="255" y="868" type="curve" smooth="yes"/>
      <point x="236" y="879"/>
      <point x="218" y="891"/>
      <point x="190" y="891" type="curve" smooth="yes"/>
      <point x="147" y="891"/>
      <point x="109" y="859"/>
      <point x="103" y="815" type="curve"/>
      <point x="144" y="811" type="line"/>
      <point x="149" y="835"/>
      <point x="168" y="848"/>
      <point x="190" y="848" type="curve" smooth="yes"/>
      <point x="213" y="848"/>
      <point x="228" y="837"/>
      <point x="245" y="828" type="curve" smooth="yes"/>
      <point x="267" y="816"/>
      <point x="290" y="802"/>
    </contour>
  </outline>
</glyph>
<glyph name="commaaccentcomb.case" format="2">
  <anchor x="250" y="0" name="_bottom"/>
  <anchor x="250" y="-229" name="bottom"/>
  <outline>
    <contour>
      <point x="222" y="-229" type="line"/>
      <point x="275" y="-198"/>
      <point x="299" y="-172"/>
      <point x="299" y="-128" type="curve" smooth="yes"/>
      <point x="299" y="-91"/>
      <point x="277" y="-67"/>
      <point x="240" y="-67" type="curve" smooth="yes"/>
      <point x="220" y="-67"/>
      <point x="204" y="-81"/>
      <point x="204" y="-100" type="curve" smooth="yes"/>
      <point x="204" y="-115"/>
      <point x="213" y="-128"/>
      <point x="226" y="-133" type="curve" smooth="yes"/>
      <point x="238" y="-138"/>
      <point x="248" y="-143"/>
      <point x="248" y="-156" type="curve" smooth="yes"/>
      <point x="248" y="-173"/>
      <point x="233" y="-185"/>
      <point x="201" y="-205" type="curve"/>
    </contour>
  </outline>
</glyph>
<glyph name="dieresiscomb_acutecomb" format="2">
  <anchor x="250" y="525" name="_top"/>
  <anchor x="251" y="790" name="top"/>
  <outline>
    <contour>
      <point x="154" y="619" type="curve" smooth="yes"/>
      <point x="183" y="619"/>
      <point x="200" y="637"/>
      <point x="200" y="664" type="curve" smooth="yes"/>
      <point x="200" y="692"/>
      <point x="183" y="709"/>
      <point x="154" y="709" type="curve" smooth="yes"/>
      <point x="124" y="709"/>
      <point x="108" y="691"/>
      <point x="108" y="664" type="curve" smooth="yes"/>
      <point x="108" y="636"/>
      <point x="124" y="619"/>
    </contour>
    <contour>
      <point x="345" y="620" type="curve" smooth="yes"/>
      <point x="374" y="620"/>
      <point x="391" y="638"/>
      <point x="391" y="665" type="curve" smooth="yes"/>
      <point x="391" y="693"/>
      <point x="374" y="710"/>
      <point x="345" y="710" type="curve" smooth="yes"/>
      <point x="315" y="710"/>
      <point x="299" y="692"/>
      <point x="299" y="665" type="curve" smooth="yes"/>
      <point x="299" y="637"/>
      <point x="315" y="620"/>
    </contour>
    <contour>
      <point x="248" y="726" type="line"/>
      <point x="340" y="841" type="line"/>
      <point x="276" y="880" type="line"/>
      <point x="217" y="746" type="line"/>
    </contour>
  </outline>
</glyph>
<glyph name="dotaccentcomb.case" format="2">
  <anchor x="250" y="700" name="_top"/>
  <anchor x="250" y="835" name="top"/>
  <outline>
    <contour>
      <point x="250" y="779" type="curve" smooth="yes"/>
      <point x="279" y="779"/>
      <point x="296" y="797"/>
      <point x="296" y="824" type="curve" smooth="yes"/>
      <point x="296" y="852"/>
      <point x="279" y="869"/>
      <point x="250" y="869" type="curve" smooth="yes"/>
      <point x="221" y="869"/>
      <point x="204" y="851"/>
      <point x="204" y="824" type="curve" smooth="yes"/>
      <point x="204" y="796"/>
      <point x="221" y="779"/>
    </contour>
  </outline>
</glyph>
<glyph name="four.dnom" format="2">
  <advance width="390"/>
  <outline>
    <contour>
      <point x="270" y="121" type="line"/>
      <point x="270" y="83" type="line"/>
      <point x="340" y="83" type="line"/>
      <point x="340" y="121" type="line"/>
    </contour>
    <contour>
      <point x="85" y="98" type="line"/>
      <point x="267" y="328" type="line"/>
      <point x="239" y="338" type="line"/>
      <point x="239" y="111" type="line"/>
      <point x="252" y="121" type="line"/>
      <point x="79" y="121" type="line"/>
    </contour>
    <contour>
      <point x="279" y="0" type="line"/>
      <point x="279" y="356" type="line"/>
      <point x="239" y="356" type="line"/>
      <point x="47" y="116" type="line"/>
      <point x="55" y="83" type="line"/>
      <point x="256" y="83" type="line"/>
      <point x="239" y="97" type="line"/>
      <point x="239" y="0" type="line"/>
    </contour>
  </outline>
</glyph>
<glyph name="g.ss01" format="2">
  <advance width="580"/>
  <anchor x="290" y="-230" name="bottom"/>
  <anchor x="290" y="520" name="top"/>
  <outline>
    <contour>
      <point x="288" y="-231" type="curve" smooth="yes"/>
      <point x="430.667" y="-231"/>
      <point x="517" y="-164"/>
      <point x="517" y="-76" type="curve" smooth="yes"/>
      <point x="517" y="20"/>
      <point x="430.667" y="79"/>
      <point x="288" y="79" type="curve" smooth="yes"/>
      <point x="212" y="79" type="line" smooth="yes"/>
      <point x="152.333" y="79"/>
      <point x="134" y="96.667"/>
      <point x="134" y="130" type="curve" smooth="yes"/>
      <point x="134" y="156.667"/>
      <point x="157" y="180"/>
      <point x="205" y="180" type="curve" smooth="yes"/>
      <point x="280" y="180" type="line" smooth="yes"/>
      <point x="388" y="180"/>
      <point x="475" y="259.667"/>
      <point x="475" y="357" type="curve" smooth="yes"/>
      <point x="475" y="417"/>
      <point x="445" y="455"/>
      <point x="403" y="493" type="curve"/>
      <point x="396" y="472" type="line"/>
      <point x="521" y="472" type="line"/>
      <point x="521" y="520" type="line"/>
      <point x="318" y="520" type="line"/>
      <point x="377" y="511" type="line"/>
      <point x="345" y="521"/>
      <point x="310" y="531"/>
      <point x="280" y="531" type="curve" smooth="yes"/>
      <point x="172" y="531"/>
      <point x="85" y="453"/>
      <point x="85" y="357" type="curve" smooth="yes"/>
      <point x="85" y="303"/>
      <point x="108" y="240"/>
      <point x="193" y="200" type="curve"/>
      <point x="198" y="222" type="line"/>
      <point x="110" y="211.333"/>
      <point x="83" y="169.749"/>
      <point x="83" y="127" type="curve" smooth="yes"/>
      <point x="83" y="77.465"/>
      <point x="120" y="46"/>
      <point x="167" y="34" type="curve"/>
      <point x="158" y="51" type="line"/>
      <point x="91" y="26"/>
      <point x="59" y="-19"/>
      <point x="59" y="-76" type="curve" smooth="yes"/>
      <point x="59" y="-164"/>
      <point x="138.667" y="-231"/>
    </contour>
    <contour>
      <point x="287" y="-181" type="curve" smooth="yes"/>
      <point x="181.667" y="-181"/>
      <point x="112" y="-136"/>
      <point x="112" y="-76" type="curve" smooth="yes"/>
      <point x="112" y="-10.667"/>
      <point x="181.667" y="29"/>
      <point x="287" y="29" type="curve" smooth="yes"/>
      <point x="395" y="29"/>
      <point x="464" y="-10.667"/>
      <point x="464" y="-76" type="curve" smooth="yes"/>
      <point x="464" y="-136"/>
      <point x="395" y="-181"/>
    </contour>
    <contour>
      <point x="280" y="230" type="curve" smooth="yes"/>
      <point x="194" y="230"/>
      <point x="138" y="283.667"/>
      <point x="138" y="357" type="curve" smooth="yes"/>
      <point x="138" y="426.333"/>
      <point x="195" y="481"/>
      <point x="280" y="481" type="curve" smooth="yes"/>
      <point x="360" y="481"/>
      <point x="422" y="425"/>
      <point x="422" y="357" type="curve" smooth="yes"/>
      <point x="422" y="281"/>
      <point x="360" y="230"/>
    </contour>
  </outline>
</glyph>
<glyph name="hookabovecomb.case" format="2">
  <anchor x="249" y="700" name="_top"/>
  <anchor x="249" y="835" name="top"/>
  <outline>
    <contour>
      <point x="239" y="768" type="curve"/>
      <point x="276" y="777" type="line"/>
      <point x="275" y="782"/>
      <point x="275" y="784"/>
      <point x="275" y="786" type="curve" smooth="yes"/>
      <point x="275" y="800"/>
      <point x="287" y="807"/>
      <point x="301" y="816" type="curve" smooth="yes"/>
      <point x="319" y="828"/>
      <point x="340" y="841"/>
      <point x="340" y="870" type="curve" smooth="yes"/>
      <point x="340" y="902"/>
      <point x="310" y="933"/>
      <point x="251" y="933" type="curve" smooth="yes"/>
      <point x="223" y="933"/>
      <point x="187" y="925"/>
      <point x="158" y="912" type="curve"/>
      <point x="171" y="875" type="line"/>
      <point x="198" y="886"/>
      <point x="223" y="891"/>
      <point x="243" y="891" type="curve" smooth="yes"/>
      <point x="269" y="891"/>
      <point x="292" y="883"/>
      <point x="292" y="866" type="curve" smooth="yes"/>
      <point x="292" y="854"/>
      <point x="277" y="844"/>
      <point x="256" y="830" type="curve" smooth="yes"/>
      <point x="236" y="816"/>
      <point x="232" y="803"/>
      <point x="232" y="794" type="curve" smooth="yes"/>
      <point x="232" y="786"/>
      <point x="235" y="775"/>
    </contour>
  </outline>
</glyph>
<glyph name="hungarumlautcomb.case" format="2">
  <anchor x="180" y="700" name="_top"/>
  <anchor x="250" y="835" name="top"/>
  <outline>
    <contour>
      <point x="103" y="757" type="line"/>
      <point x="265" y="844" type="line"/>
      <point x="236" y="892" type="line"/>
      <point x="85" y="790" type="line"/>
    </contour>
    <contour>
      <point x="253" y="757" type="line"/>
      <point x="415" y="844" type="line"/>
      <point x="386" y="892" type="line"/>
      <point x="235" y="790" type="line"/>
    </contour>
  </outline>
</glyph>
<glyph name="macroncomb.case" format="2">
  <anchor x="250" y="700" name="_top"/>
  <anchor x="250" y="835" name="top"/>
  <outline>
    <contour>
      <point x="108" y="801" type="line"/>
      <point x="392" y="801" type="line"/>
      <point x="392" y="847" type="line"/>
      <point x="108" y="847" type="line"/>
    </contour>
  </outline>
</glyph>
<glyph name="macroncomb_acutecomb" format="2">
  <anchor x="250" y="525" name="_top"/>
  <anchor x="250" y="690" name="top"/>
  <outline>
    <contour>
      <point x="113" y="639" type="line"/>
      <point x="387" y="639" type="line"/>
      <point x="387" y="682" type="line"/>
      <point x="113" y="682" type="line"/>
    </contour>
    <contour>
      <point x="248" y="716" type="line"/>
      <point x="340" y="831" type="line"/>
      <point x="295" y="862" type="line"/>
      <point x="217" y="736" type="line"/>
    </contour>
  </outline>
</glyph>
<glyph name="macroncomb_gravecomb" format="2">
  <anchor x="250" y="525" name="_top"/>
  <anchor x="250" y="690" name="top"/>
  <outline>
    <contour>
      <point x="269" y="716" type="line"/>
      <point x="300" y="736" type="line"/>
      <point x="222" y="862" type="line"/>
      <point x="177" y="831" type="line"/>
    </contour>
    <contour>
      <point x="113" y="639" type="line"/>
      <point x="387" y="639" type="line"/>
      <point x="387" y="682" type="line"/>
      <point x="113" y="682" type="line"/>
    </contour>
  </outline>
</glyph>
<glyph name="one.dnom" format="2">
  <advance width="278"/>
  <outline>
    <contour>
      <point x="147" y="0" type="line"/>
      <point x="153.667" y="0"/>
      <point x="160.5" y="0"/>
      <point x="167.5" y="0" type="curve" smooth="yes"/>
      <point x="188" y="0" type="line"/>
      <point x="188" y="346" type="line"/>
      <point x="172" y="346" type="line"/>
      <point x="60" y="280" type="line"/>
      <point x="78" y="247" type="line"/>
      <point x="159" y="294" type="line"/>
      <point x="147" y="315" type="line"/>
    </contour>
  </outline>
</glyph>
<glyph name="ringcomb.case" format="2">
  <anchor x="251" y="700" name="_top"/>
  <anchor x="250" y="927" name="top"/>
  <outline>
    <contour>
      <point x="250" y="751" type="curve" smooth="yes"/>
      <point x="308" y="751"/>
      <point x="360" y="800"/>
      <point x="360" y="856" type="curve" smooth="yes"/>
      <point x="360" y="913"/>
      <point x="308" y="962"/>
      <point x="250" y="962" type="curve" smooth="yes"/>
      <point x="191" y="962"/>
      <point x="141" y="913"/>
      <point x="141" y="856" type="curve" smooth="yes"/>
      <point x="141" y="800"/>
      <point x="192" y="751"/>
    </contour>
    <contour>
      <point x="250" y="790" type="curve" smooth="yes"/>
      <point x="212" y="790"/>
      <point x="181" y="820"/>
      <point x="181" y="856" type="curve" smooth="yes"/>
      <point x="181" y="895"/>
      <point x="210" y="923"/>
      <point x="250" y="923" type="curve" smooth="yes"/>
      <point x="288" y="923"/>
      <point x="320" y="896"/>
      <point x="320" y="856" type="curve" smooth="yes"/>
      <point x="320" y="820"/>
      <point x="288" y="790"/>
    </contour>
  </outline>
</glyph>
<glyph name="six.dnom" format="2">
  <advance width="343"/>
  <outline>
    <contour>
      <point x="176" y="-11" type="curve" smooth="yes"/>
      <point x="241.213" y="-11"/>
      <point x="293" y="40.667"/>
      <point x="293" y="106" type="curve" smooth="yes"/>
      <point x="293" y="172.667"/>
      <point x="242.492" y="223"/>
      <point x="176" y="223" type="curve" smooth="yes"/>
      <point x="132" y="223"/>
      <point x="85" y="197.333"/>
      <point x="73" y="144" type="curve"/>
      <point x="83" y="146" type="line"/>
      <point x="91" y="254"/>
      <point x="138.667" y="320"/>
      <point x="196" y="320" type="curve" smooth="yes"/>
      <point x="218.667" y="320"/>
      <point x="244.667" y="312.333"/>
      <point x="266" y="291" type="curve"/>
      <point x="284" y="326" type="line"/>
      <point x="266.667" y="343.333"/>
      <point x="238.667" y="358"/>
      <point x="200" y="358" type="curve" smooth="yes"/>
      <point x="102.667" y="358"/>
      <point x="46" y="264.667"/>
      <point x="46" y="134" type="curve" smooth="yes"/>
      <point x="46" y="43.333"/>
      <point x="93.333" y="-11"/>
    </contour>
    <contour>
      <point x="174" y="27" type="curve" smooth="yes"/>
      <point x="127.333" y="27"/>
      <point x="90" y="61.333"/>
      <point x="90" y="108" type="curve" smooth="yes"/>
      <point x="90" y="150.667"/>
      <point x="127.333" y="185"/>
      <point x="174" y="185" type="curve" smooth="yes"/>
      <point x="219.176" y="185"/>
      <point x="254" y="150"/>
      <point x="254" y="106" type="curve" smooth="yes"/>
      <point x="254" y="60.667"/>
      <point x="219.176" y="27"/>
    </contour>
  </outline>
</glyph>
<glyph name="tildecomb_acutecomb" format="2">
  <anchor x="250" y="525" name="_top"/>
  <anchor x="250" y="690" name="top"/>
  <outline>
    <contour>
      <point x="261" y="736" type="line"/>
      <point x="353" y="851" type="line"/>
      <point x="308" y="882" type="line"/>
      <point x="230" y="756" type="line"/>
    </contour>
    <component base="tildecomb"/>
  </outline>
</glyph>
<glyph name="tildecomb_dieresiscomb" format="2">
  <anchor x="251" y="525" name="_top"/>
  <anchor x="247.5" y="855" name="top"/>
  <outline>
    <contour>
      <point x="344" y="780" type="curve" smooth="yes"/>
      <point x="373" y="780"/>
      <point x="390" y="798"/>
      <point x="390" y="825" type="curve" smooth="yes"/>
      <point x="390" y="853"/>
      <point x="373" y="870"/>
      <point x="344" y="870" type="curve" smooth="yes"/>
      <point x="314" y="870"/>
      <point x="298" y="852"/>
      <point x="298" y="825" type="curve" smooth="yes"/>
      <point x="298" y="797"/>
      <point x="314" y="780"/>
    </contour>
    <contour>
      <point x="153" y="779" type="curve" smooth="yes"/>
      <point x="182" y="779"/>
      <point x="199" y="797"/>
      <point x="199" y="824" type="curve" smooth="yes"/>
      <point x="199" y="852"/>
      <point x="182" y="869"/>
      <point x="153" y="869" type="curve" smooth="yes"/>
      <point x="123" y="869"/>
      <point x="107" y="851"/>
      <point x="107" y="824" type="curve" smooth="yes"/>
      <point x="107" y="796"/>
      <point x="123" y="779"/>
    </contour>
    <component base="tildecomb" xOffset="-1"/>
  </outline>
</glyph>
<glyph name="zero.dnom" format="2">
  <advance width="364"/>
  <outline>
    <contour>
      <point x="183" y="-10" type="curve" smooth="yes"/>
      <point x="269.667" y="-10"/>
      <point x="334" y="68.667"/>
      <point x="334" y="174" type="curve" smooth="yes"/>
      <point x="334" y="282"/>
      <point x="272.333" y="359"/>
      <point x="183" y="359" type="curve" smooth="yes"/>
      <point x="92.333" y="359"/>
      <point x="30" y="282"/>
      <point x="30" y="174" type="curve" smooth="yes"/>
      <point x="30" y="68.667"/>
      <point x="95" y="-10"/>
    </contour>
    <contour>
      <point x="183" y="29" type="curve" smooth="yes"/>
      <point x="115" y="29"/>
      <point x="73" y="86"/>
      <point x="73" y="174" type="curve" smooth="yes"/>
      <point x="73" y="262"/>
      <point x="116.333" y="320"/>
      <point x="183" y="320" type="curve" smooth="yes"/>
      <point x="249.667" y="320"/>
      <point x="291" y="261.401"/>
      <point x="291" y="174" type="curve" smooth="yes"/>
      <point x="291" y="86.603"/>
      <point x="249.667" y="29"/>
    </contour>
  </outline>
</glyph>
